<mxfile host="app.diagrams.net" modified="2023-03-28T02:27:54.953Z" agent="Mozilla/5.0 (Windows NT 10.0; Win64; x64) AppleWebKit/537.36 (KHTML, like Gecko) Chrome/111.0.0.0 Safari/537.36" etag="JF3oI93Z-xA4uQsqMMJe" version="21.1.1" type="github" pages="3">
  <diagram name="System/Sub-System Overview" id="2L-cOZeSmo-Xu8jlNMAm">
    <mxGraphModel dx="1434" dy="764" grid="1" gridSize="10" guides="1" tooltips="1" connect="1" arrows="1" fold="1" page="1" pageScale="1" pageWidth="827" pageHeight="1169" math="0" shadow="0">
      <root>
        <mxCell id="0" />
        <mxCell id="1" parent="0" />
        <object placeholders="1" c4Name="Odin" c4Type="SystemScopeBoundary" c4Application="Platform Browser" label="&lt;font style=&quot;font-size: 16px&quot;&gt;&lt;b&gt;&lt;div style=&quot;text-align: left&quot;&gt;%c4Name%&lt;/div&gt;&lt;/b&gt;&lt;/font&gt;&lt;div style=&quot;text-align: left&quot;&gt;[%c4Application%]&lt;/div&gt;" id="LxKQGS648OkQD__flQ3X-3">
          <mxCell style="rounded=1;fontSize=11;whiteSpace=wrap;html=1;dashed=1;arcSize=20;fillColor=#d5e8d4;strokeColor=#82b366;labelBackgroundColor=none;align=left;verticalAlign=bottom;labelBorderColor=none;spacingTop=0;spacing=10;dashPattern=8 4;metaEdit=1;rotatable=0;perimeter=rectanglePerimeter;noLabel=0;labelPadding=0;allowArrows=0;connectable=0;expand=0;recursiveResize=0;editable=1;pointerEvents=0;absoluteArcSize=1;points=[[0.25,0,0],[0.5,0,0],[0.75,0,0],[1,0.25,0],[1,0.5,0],[1,0.75,0],[0.75,1,0],[0.5,1,0],[0.25,1,0],[0,0.75,0],[0,0.5,0],[0,0.25,0]];" parent="1" vertex="1">
            <mxGeometry x="480" y="1100" width="200" height="50" as="geometry" />
          </mxCell>
        </object>
        <object placeholders="1" c4Name="Vewd" c4Type="SystemScopeBoundary" c4Application="Platform Browser" label="&lt;font style=&quot;font-size: 16px&quot;&gt;&lt;b&gt;&lt;div style=&quot;text-align: left&quot;&gt;%c4Name%&lt;/div&gt;&lt;/b&gt;&lt;/font&gt;&lt;div style=&quot;text-align: left&quot;&gt;[%c4Application%]&lt;/div&gt;" id="LxKQGS648OkQD__flQ3X-4">
          <mxCell style="rounded=1;fontSize=11;whiteSpace=wrap;html=1;dashed=1;arcSize=20;fillColor=#d5e8d4;strokeColor=#82b366;labelBackgroundColor=none;align=left;verticalAlign=bottom;labelBorderColor=none;spacingTop=0;spacing=10;dashPattern=8 4;metaEdit=1;rotatable=0;perimeter=rectanglePerimeter;noLabel=0;labelPadding=0;allowArrows=0;connectable=0;expand=0;recursiveResize=0;editable=1;pointerEvents=0;absoluteArcSize=1;points=[[0.25,0,0],[0.5,0,0],[0.75,0,0],[1,0.25,0],[1,0.5,0],[1,0.75,0],[0.75,1,0],[0.5,1,0],[0.25,1,0],[0,0.75,0],[0,0.5,0],[0,0.25,0]];" parent="1" vertex="1">
            <mxGeometry x="720" y="1100" width="250" height="50" as="geometry" />
          </mxCell>
        </object>
        <object placeholders="1" c4Name="WebApp Single Repo" c4Type="SystemScopeBoundary" c4Application="Git / SVN" label="&lt;font style=&quot;font-size: 16px&quot;&gt;&lt;b&gt;&lt;div style=&quot;text-align: left&quot;&gt;%c4Name%&lt;/div&gt;&lt;/b&gt;&lt;/font&gt;&lt;div style=&quot;text-align: left&quot;&gt;[%c4Application%]&lt;/div&gt;" id="LxKQGS648OkQD__flQ3X-8">
          <mxCell style="rounded=1;fontSize=11;whiteSpace=wrap;html=1;dashed=1;arcSize=20;fillColor=#f8cecc;strokeColor=#b85450;labelBackgroundColor=none;align=left;verticalAlign=bottom;labelBorderColor=none;spacingTop=0;spacing=10;dashPattern=8 4;metaEdit=1;rotatable=0;perimeter=rectanglePerimeter;noLabel=0;labelPadding=0;allowArrows=0;connectable=0;expand=0;recursiveResize=0;editable=1;pointerEvents=0;absoluteArcSize=1;points=[[0.25,0,0],[0.5,0,0],[0.75,0,0],[1,0.25,0],[1,0.5,0],[1,0.75,0],[0.75,1,0],[0.5,1,0],[0.25,1,0],[0,0.75,0],[0,0.5,0],[0,0.25,0]];" parent="1" vertex="1">
            <mxGeometry x="160" y="330" width="180" height="50" as="geometry" />
          </mxCell>
        </object>
        <object placeholders="1" c4Name="VIDAA_UI Monorepo" c4Type="SystemScopeBoundary" c4Application="Git / SVN" label="&lt;font style=&quot;font-size: 16px&quot;&gt;&lt;b&gt;&lt;div style=&quot;text-align: left&quot;&gt;%c4Name%&lt;/div&gt;&lt;/b&gt;&lt;/font&gt;&lt;div style=&quot;text-align: left&quot;&gt;[%c4Application%]&lt;/div&gt;" id="LxKQGS648OkQD__flQ3X-10">
          <mxCell style="rounded=1;fontSize=11;whiteSpace=wrap;html=1;dashed=1;arcSize=20;fillColor=none;strokeColor=#666666;fontColor=#333333;labelBackgroundColor=none;align=left;verticalAlign=bottom;labelBorderColor=none;spacingTop=0;spacing=10;dashPattern=8 4;metaEdit=1;rotatable=0;perimeter=rectanglePerimeter;noLabel=0;labelPadding=0;allowArrows=0;connectable=0;expand=0;recursiveResize=0;editable=1;pointerEvents=0;absoluteArcSize=1;points=[[0.25,0,0],[0.5,0,0],[0.75,0,0],[1,0.25,0],[1,0.5,0],[1,0.75,0],[0.75,1,0],[0.5,1,0],[0.25,1,0],[0,0.75,0],[0,0.5,0],[0,0.25,0]];" parent="1" vertex="1">
            <mxGeometry x="490" y="80" width="180" height="300" as="geometry" />
          </mxCell>
        </object>
        <object placeholders="1" c4Name="UI Repo" c4Type="SystemScopeBoundary" c4Application="Git / SVN" label="&lt;font style=&quot;font-size: 16px&quot;&gt;&lt;b&gt;&lt;div style=&quot;text-align: left&quot;&gt;%c4Name%&lt;/div&gt;&lt;/b&gt;&lt;/font&gt;&lt;div style=&quot;text-align: left&quot;&gt;[%c4Application%]&lt;/div&gt;" id="LxKQGS648OkQD__flQ3X-11">
          <mxCell style="rounded=1;fontSize=11;whiteSpace=wrap;html=1;dashed=1;arcSize=20;fillColor=none;strokeColor=#666666;fontColor=#333333;labelBackgroundColor=none;align=left;verticalAlign=bottom;labelBorderColor=none;spacingTop=0;spacing=10;dashPattern=8 4;metaEdit=1;rotatable=0;perimeter=rectanglePerimeter;noLabel=0;labelPadding=0;allowArrows=0;connectable=0;expand=0;recursiveResize=0;editable=1;pointerEvents=0;absoluteArcSize=1;points=[[0.25,0,0],[0.5,0,0],[0.75,0,0],[1,0.25,0],[1,0.5,0],[1,0.75,0],[0.75,1,0],[0.5,1,0],[0.25,1,0],[0,0.75,0],[0,0.5,0],[0,0.25,0]];" parent="1" vertex="1">
            <mxGeometry x="500" y="90" width="160" height="50" as="geometry" />
          </mxCell>
        </object>
        <object placeholders="1" c4Name="build Repo" c4Type="SystemScopeBoundary" c4Application="Git / SVN" label="&lt;font style=&quot;font-size: 16px&quot;&gt;&lt;b&gt;&lt;div style=&quot;text-align: left&quot;&gt;%c4Name%&lt;/div&gt;&lt;/b&gt;&lt;/font&gt;&lt;div style=&quot;text-align: left&quot;&gt;[%c4Application%]&lt;/div&gt;" id="LxKQGS648OkQD__flQ3X-12">
          <mxCell style="rounded=1;fontSize=11;whiteSpace=wrap;html=1;dashed=1;arcSize=20;fillColor=none;strokeColor=#666666;fontColor=#333333;labelBackgroundColor=none;align=left;verticalAlign=bottom;labelBorderColor=none;spacingTop=0;spacing=10;dashPattern=8 4;metaEdit=1;rotatable=0;perimeter=rectanglePerimeter;noLabel=0;labelPadding=0;allowArrows=0;connectable=0;expand=0;recursiveResize=0;editable=1;pointerEvents=0;absoluteArcSize=1;points=[[0.25,0,0],[0.5,0,0],[0.75,0,0],[1,0.25,0],[1,0.5,0],[1,0.75,0],[0.75,1,0],[0.5,1,0],[0.25,1,0],[0,0.75,0],[0,0.5,0],[0,0.25,0]];" parent="1" vertex="1">
            <mxGeometry x="500" y="150" width="160" height="50" as="geometry" />
          </mxCell>
        </object>
        <mxCell id="LxKQGS648OkQD__flQ3X-13" value="" style="html=1;shadow=0;dashed=0;align=center;verticalAlign=middle;shape=mxgraph.arrows2.arrow;dy=0.6;dx=40;notch=0;" parent="1" vertex="1">
          <mxGeometry x="364" y="190" width="100" height="70" as="geometry" />
        </mxCell>
        <object placeholders="1" c4Name="SDK Repo" c4Type="SystemScopeBoundary" c4Application="Git / SVN" label="&lt;font style=&quot;font-size: 16px&quot;&gt;&lt;b&gt;&lt;div style=&quot;text-align: left&quot;&gt;%c4Name%&lt;/div&gt;&lt;/b&gt;&lt;/font&gt;&lt;div style=&quot;text-align: left&quot;&gt;[%c4Application%]&lt;/div&gt;" id="LxKQGS648OkQD__flQ3X-14">
          <mxCell style="rounded=1;fontSize=11;whiteSpace=wrap;html=1;dashed=1;arcSize=20;fillColor=none;strokeColor=#666666;fontColor=#333333;labelBackgroundColor=none;align=left;verticalAlign=bottom;labelBorderColor=none;spacingTop=0;spacing=10;dashPattern=8 4;metaEdit=1;rotatable=0;perimeter=rectanglePerimeter;noLabel=0;labelPadding=0;allowArrows=0;connectable=0;expand=0;recursiveResize=0;editable=1;pointerEvents=0;absoluteArcSize=1;points=[[0.25,0,0],[0.5,0,0],[0.75,0,0],[1,0.25,0],[1,0.5,0],[1,0.75,0],[0.75,1,0],[0.5,1,0],[0.25,1,0],[0,0.75,0],[0,0.5,0],[0,0.25,0]];" parent="1" vertex="1">
            <mxGeometry x="500" y="210" width="160" height="50" as="geometry" />
          </mxCell>
        </object>
        <object placeholders="1" c4Name="WebApp Repo" c4Type="SystemScopeBoundary" c4Application="Git / SVN" label="&lt;font style=&quot;font-size: 16px&quot;&gt;&lt;b&gt;&lt;div style=&quot;text-align: left&quot;&gt;%c4Name%&lt;/div&gt;&lt;/b&gt;&lt;/font&gt;&lt;div style=&quot;text-align: left&quot;&gt;[%c4Application%]&lt;/div&gt;" id="LxKQGS648OkQD__flQ3X-15">
          <mxCell style="rounded=1;fontSize=11;whiteSpace=wrap;html=1;dashed=1;arcSize=20;fillColor=#d5e8d4;strokeColor=#82b366;labelBackgroundColor=none;align=left;verticalAlign=bottom;labelBorderColor=none;spacingTop=0;spacing=10;dashPattern=8 4;metaEdit=1;rotatable=0;perimeter=rectanglePerimeter;noLabel=0;labelPadding=0;allowArrows=0;connectable=0;expand=0;recursiveResize=0;editable=1;pointerEvents=0;absoluteArcSize=1;points=[[0.25,0,0],[0.5,0,0],[0.75,0,0],[1,0.25,0],[1,0.5,0],[1,0.75,0],[0.75,1,0],[0.5,1,0],[0.25,1,0],[0,0.75,0],[0,0.5,0],[0,0.25,0]];" parent="1" vertex="1">
            <mxGeometry x="500" y="270" width="160" height="50" as="geometry" />
          </mxCell>
        </object>
        <mxCell id="LxKQGS648OkQD__flQ3X-16" value="&lt;p style=&quot;line-height: 100%;&quot;&gt;&lt;/p&gt;&lt;h1 style=&quot;line-height: 90%;&quot;&gt;&lt;b&gt;&lt;font style=&quot;font-size: 24px;&quot; color=&quot;#ff3333&quot;&gt;仓库结构变化（第一版）：&lt;/font&gt;&lt;/b&gt;&lt;/h1&gt;&lt;p&gt;&lt;/p&gt;" style="text;html=1;align=center;verticalAlign=middle;resizable=0;points=[];autosize=1;strokeColor=none;fillColor=none;" parent="1" vertex="1">
          <mxGeometry x="80" width="310" height="70" as="geometry" />
        </mxCell>
        <mxCell id="LxKQGS648OkQD__flQ3X-17" value="&lt;p style=&quot;line-height: 100%;&quot;&gt;&lt;/p&gt;&lt;h1 style=&quot;line-height: 90%;&quot;&gt;&lt;b&gt;&lt;font style=&quot;font-size: 24px;&quot; color=&quot;#ff3333&quot;&gt;整体架构设计（第三版）：&lt;/font&gt;&lt;/b&gt;&lt;/h1&gt;&lt;p&gt;&lt;/p&gt;" style="text;html=1;align=center;verticalAlign=middle;resizable=0;points=[];autosize=1;strokeColor=none;fillColor=none;" parent="1" vertex="1">
          <mxGeometry x="80" y="440" width="310" height="70" as="geometry" />
        </mxCell>
        <object placeholders="1" c4Name="VIDAA_UI Monorepo" c4Type="SystemScopeBoundary" c4Application="Monorepo" label="&lt;font style=&quot;font-size: 16px&quot;&gt;&lt;b&gt;&lt;div style=&quot;text-align: left&quot;&gt;%c4Name%&lt;/div&gt;&lt;/b&gt;&lt;/font&gt;&lt;div style=&quot;text-align: left&quot;&gt;[%c4Application%]&lt;/div&gt;" id="LxKQGS648OkQD__flQ3X-45">
          <mxCell style="rounded=1;fontSize=11;whiteSpace=wrap;html=1;dashed=1;arcSize=20;fillColor=none;strokeColor=#666666;fontColor=#333333;labelBackgroundColor=none;align=left;verticalAlign=bottom;labelBorderColor=none;spacingTop=0;spacing=10;dashPattern=8 4;metaEdit=1;rotatable=0;perimeter=rectanglePerimeter;noLabel=0;labelPadding=0;allowArrows=0;connectable=0;expand=0;recursiveResize=0;editable=1;pointerEvents=0;absoluteArcSize=1;points=[[0.25,0,0],[0.5,0,0],[0.75,0,0],[1,0.25,0],[1,0.5,0],[1,0.75,0],[0.75,1,0],[0.5,1,0],[0.25,1,0],[0,0.75,0],[0,0.5,0],[0,0.25,0]];" parent="1" vertex="1">
            <mxGeometry x="80" y="520" width="890" height="550" as="geometry" />
          </mxCell>
        </object>
        <object placeholders="1" c4Name="Cobalt" c4Type="SystemScopeBoundary" c4Application="Platform Browser" label="&lt;font style=&quot;font-size: 16px&quot;&gt;&lt;b&gt;&lt;div style=&quot;text-align: left&quot;&gt;%c4Name%&lt;/div&gt;&lt;/b&gt;&lt;/font&gt;&lt;div style=&quot;text-align: left&quot;&gt;[%c4Application%]&lt;/div&gt;" id="LxKQGS648OkQD__flQ3X-46">
          <mxCell style="rounded=1;fontSize=11;whiteSpace=wrap;html=1;dashed=1;arcSize=20;fillColor=#f8cecc;strokeColor=#b85450;labelBackgroundColor=none;align=left;verticalAlign=bottom;labelBorderColor=none;spacingTop=0;spacing=10;dashPattern=8 4;metaEdit=1;rotatable=0;perimeter=rectanglePerimeter;noLabel=0;labelPadding=0;allowArrows=0;connectable=0;expand=0;recursiveResize=0;editable=1;pointerEvents=0;absoluteArcSize=1;points=[[0.25,0,0],[0.5,0,0],[0.75,0,0],[1,0.25,0],[1,0.5,0],[1,0.75,0],[0.75,1,0],[0.5,1,0],[0.25,1,0],[0,0.75,0],[0,0.5,0],[0,0.25,0]];" parent="1" vertex="1">
            <mxGeometry x="280" y="1100" width="160" height="50" as="geometry" />
          </mxCell>
        </object>
        <object placeholders="1" c4Name="App Modules" c4Type="SystemScopeBoundary" c4Application="Modules" label="&lt;font style=&quot;font-size: 16px&quot;&gt;&lt;b&gt;&lt;div style=&quot;text-align: left&quot;&gt;%c4Name%&lt;/div&gt;&lt;/b&gt;&lt;/font&gt;&lt;div style=&quot;text-align: left&quot;&gt;[%c4Application%]&lt;/div&gt;" id="LxKQGS648OkQD__flQ3X-47">
          <mxCell style="rounded=1;fontSize=11;whiteSpace=wrap;html=1;dashed=1;arcSize=20;fillColor=none;strokeColor=#666666;fontColor=#333333;labelBackgroundColor=none;align=left;verticalAlign=bottom;labelBorderColor=none;spacingTop=0;spacing=10;dashPattern=8 4;metaEdit=1;rotatable=0;perimeter=rectanglePerimeter;noLabel=0;labelPadding=0;allowArrows=0;connectable=0;expand=0;recursiveResize=0;editable=1;pointerEvents=0;absoluteArcSize=1;points=[[0.25,0,0],[0.5,0,0],[0.75,0,0],[1,0.25,0],[1,0.5,0],[1,0.75,0],[0.75,1,0],[0.5,1,0],[0.25,1,0],[0,0.75,0],[0,0.5,0],[0,0.25,0]];" parent="1" vertex="1">
            <mxGeometry x="230" y="540" width="720" height="110" as="geometry" />
          </mxCell>
        </object>
        <object placeholders="1" c4Name="vre" c4Type="SystemScopeBoundary" c4Application="Modules" label="&lt;font style=&quot;font-size: 16px&quot;&gt;&lt;b&gt;&lt;div style=&quot;text-align: left&quot;&gt;%c4Name%&lt;/div&gt;&lt;/b&gt;&lt;/font&gt;&lt;div style=&quot;text-align: left&quot;&gt;[%c4Application%]&lt;/div&gt;" id="LxKQGS648OkQD__flQ3X-48">
          <mxCell style="rounded=1;fontSize=11;whiteSpace=wrap;html=1;dashed=1;arcSize=20;fillColor=#f8cecc;strokeColor=#b85450;labelBackgroundColor=none;align=left;verticalAlign=bottom;labelBorderColor=none;spacingTop=0;spacing=10;dashPattern=8 4;metaEdit=1;rotatable=0;perimeter=rectanglePerimeter;noLabel=0;labelPadding=0;allowArrows=0;connectable=0;expand=0;recursiveResize=0;editable=1;pointerEvents=0;absoluteArcSize=1;points=[[0.25,0,0],[0.5,0,0],[0.75,0,0],[1,0.25,0],[1,0.5,0],[1,0.75,0],[0.75,1,0],[0.5,1,0],[0.25,1,0],[0,0.75,0],[0,0.5,0],[0,0.25,0]];" parent="1" vertex="1">
            <mxGeometry x="230" y="670" width="490" height="110" as="geometry" />
          </mxCell>
        </object>
        <object placeholders="1" c4Name="VUI" c4Type="SystemScopeBoundary" c4Application="Modules" label="&lt;font style=&quot;font-size: 16px&quot;&gt;&lt;b&gt;&lt;div style=&quot;text-align: left&quot;&gt;%c4Name%&lt;/div&gt;&lt;/b&gt;&lt;/font&gt;&lt;div style=&quot;text-align: left&quot;&gt;[%c4Application%]&lt;/div&gt;" id="LxKQGS648OkQD__flQ3X-49">
          <mxCell style="rounded=1;fontSize=11;whiteSpace=wrap;html=1;dashed=1;arcSize=20;fillColor=#fff2cc;strokeColor=#d6b656;labelBackgroundColor=none;align=left;verticalAlign=bottom;labelBorderColor=none;spacingTop=0;spacing=10;dashPattern=8 4;metaEdit=1;rotatable=0;perimeter=rectanglePerimeter;noLabel=0;labelPadding=0;allowArrows=0;connectable=0;expand=0;recursiveResize=0;editable=1;pointerEvents=0;absoluteArcSize=1;points=[[0.25,0,0],[0.5,0,0],[0.75,0,0],[1,0.25,0],[1,0.5,0],[1,0.75,0],[0.75,1,0],[0.5,1,0],[0.25,1,0],[0,0.75,0],[0,0.5,0],[0,0.25,0]];" parent="1" vertex="1">
            <mxGeometry x="230" y="800" width="720" height="110" as="geometry" />
          </mxCell>
        </object>
        <object placeholders="1" c4Name="build" c4Type="SystemScopeBoundary" c4Application="Modules" label="&lt;font style=&quot;font-size: 16px&quot;&gt;&lt;b&gt;&lt;div style=&quot;text-align: left&quot;&gt;%c4Name%&lt;/div&gt;&lt;/b&gt;&lt;/font&gt;&lt;div style=&quot;text-align: left&quot;&gt;[%c4Application%]&lt;/div&gt;" id="LxKQGS648OkQD__flQ3X-50">
          <mxCell style="rounded=1;fontSize=11;whiteSpace=wrap;html=1;dashed=1;arcSize=20;fillColor=none;strokeColor=#666666;fontColor=#333333;labelBackgroundColor=none;align=left;verticalAlign=bottom;labelBorderColor=none;spacingTop=0;spacing=10;dashPattern=8 4;metaEdit=1;rotatable=0;perimeter=rectanglePerimeter;noLabel=0;labelPadding=0;allowArrows=0;connectable=0;expand=0;recursiveResize=0;editable=1;pointerEvents=0;absoluteArcSize=1;points=[[0.25,0,0],[0.5,0,0],[0.75,0,0],[1,0.25,0],[1,0.5,0],[1,0.75,0],[0.75,1,0],[0.5,1,0],[0.25,1,0],[0,0.75,0],[0,0.5,0],[0,0.25,0]];" parent="1" vertex="1">
            <mxGeometry x="100" y="540" width="110" height="460" as="geometry" />
          </mxCell>
        </object>
        <mxCell id="LxKQGS648OkQD__flQ3X-51" value="Launcher" style="rounded=1;whiteSpace=wrap;html=1;fillColor=#f8cecc;strokeColor=#b85450;" parent="1" vertex="1">
          <mxGeometry x="250" y="560" width="120" height="40" as="geometry" />
        </mxCell>
        <mxCell id="LxKQGS648OkQD__flQ3X-52" value="Vidaa Plus" style="rounded=1;whiteSpace=wrap;html=1;fillColor=#f8cecc;strokeColor=#b85450;" parent="1" vertex="1">
          <mxGeometry x="390" y="560" width="120" height="40" as="geometry" />
        </mxCell>
        <mxCell id="LxKQGS648OkQD__flQ3X-53" value="Search" style="rounded=1;whiteSpace=wrap;html=1;fillColor=#f8cecc;strokeColor=#b85450;" parent="1" vertex="1">
          <mxGeometry x="530" y="560" width="120" height="40" as="geometry" />
        </mxCell>
        <mxCell id="LxKQGS648OkQD__flQ3X-54" value="Free" style="rounded=1;whiteSpace=wrap;html=1;fillColor=#d5e8d4;strokeColor=#82b366;" parent="1" vertex="1">
          <mxGeometry x="720" y="560" width="80" height="40" as="geometry" />
        </mxCell>
        <mxCell id="LxKQGS648OkQD__flQ3X-55" value="Store" style="rounded=1;whiteSpace=wrap;html=1;fillColor=none;" parent="1" vertex="1">
          <mxGeometry x="390" y="690" width="120" height="40" as="geometry" />
        </mxCell>
        <mxCell id="LxKQGS648OkQD__flQ3X-56" value="Router" style="rounded=1;whiteSpace=wrap;html=1;fillColor=none;" parent="1" vertex="1">
          <mxGeometry x="250" y="690" width="120" height="40" as="geometry" />
        </mxCell>
        <mxCell id="LxKQGS648OkQD__flQ3X-57" value="http" style="rounded=1;whiteSpace=wrap;html=1;fillColor=none;" parent="1" vertex="1">
          <mxGeometry x="530" y="690" width="120" height="40" as="geometry" />
        </mxCell>
        <mxCell id="LxKQGS648OkQD__flQ3X-58" value="..." style="rounded=1;whiteSpace=wrap;html=1;fillColor=none;" parent="1" vertex="1">
          <mxGeometry x="670" y="690" width="30" height="40" as="geometry" />
        </mxCell>
        <mxCell id="LxKQGS648OkQD__flQ3X-62" value="components" style="rounded=1;whiteSpace=wrap;html=1;fillColor=none;" parent="1" vertex="1">
          <mxGeometry x="250" y="820" width="120" height="40" as="geometry" />
        </mxCell>
        <mxCell id="LxKQGS648OkQD__flQ3X-63" value="focus" style="rounded=1;whiteSpace=wrap;html=1;fillColor=none;" parent="1" vertex="1">
          <mxGeometry x="390" y="820" width="120" height="40" as="geometry" />
        </mxCell>
        <mxCell id="LxKQGS648OkQD__flQ3X-64" value="vidaa&lt;br&gt;logic" style="rounded=1;whiteSpace=wrap;html=1;fillColor=#f8cecc;strokeColor=#b85450;" parent="1" vertex="1">
          <mxGeometry x="120" y="560" width="70" height="50" as="geometry" />
        </mxCell>
        <mxCell id="LxKQGS648OkQD__flQ3X-65" value="utils" style="rounded=1;whiteSpace=wrap;html=1;fillColor=#fff2cc;strokeColor=#d6b656;" parent="1" vertex="1">
          <mxGeometry x="120" y="640" width="70" height="50" as="geometry" />
        </mxCell>
        <mxCell id="LxKQGS648OkQD__flQ3X-66" value="log" style="rounded=1;whiteSpace=wrap;html=1;fillColor=#fff2cc;strokeColor=#d6b656;" parent="1" vertex="1">
          <mxGeometry x="120" y="720" width="70" height="50" as="geometry" />
        </mxCell>
        <mxCell id="LxKQGS648OkQD__flQ3X-68" value="..." style="rounded=1;whiteSpace=wrap;html=1;fillColor=#f8cecc;strokeColor=#b85450;" parent="1" vertex="1">
          <mxGeometry x="670" y="560" width="30" height="40" as="geometry" />
        </mxCell>
        <object placeholders="1" c4Name="VIDAA_UI Monorepo" c4Type="SystemScopeBoundary" c4Application="Git / SVN" label="&lt;font style=&quot;font-size: 16px&quot;&gt;&lt;b&gt;&lt;div style=&quot;text-align: left&quot;&gt;%c4Name%&lt;/div&gt;&lt;/b&gt;&lt;/font&gt;&lt;div style=&quot;text-align: left&quot;&gt;[%c4Application%]&lt;/div&gt;" id="LxKQGS648OkQD__flQ3X-70">
          <mxCell style="rounded=1;fontSize=11;whiteSpace=wrap;html=1;dashed=1;arcSize=20;fillColor=none;strokeColor=#666666;fontColor=#333333;labelBackgroundColor=none;align=left;verticalAlign=bottom;labelBorderColor=none;spacingTop=0;spacing=10;dashPattern=8 4;metaEdit=1;rotatable=0;perimeter=rectanglePerimeter;noLabel=0;labelPadding=0;allowArrows=0;connectable=0;expand=0;recursiveResize=0;editable=1;pointerEvents=0;absoluteArcSize=1;points=[[0.25,0,0],[0.5,0,0],[0.75,0,0],[1,0.25,0],[1,0.5,0],[1,0.75,0],[0.75,1,0],[0.5,1,0],[0.25,1,0],[0,0.75,0],[0,0.5,0],[0,0.25,0]];" parent="1" vertex="1">
            <mxGeometry x="160" y="80" width="180" height="230" as="geometry" />
          </mxCell>
        </object>
        <object placeholders="1" c4Name="SDK Repo" c4Type="SystemScopeBoundary" c4Application="Git / SVN" label="&lt;font style=&quot;font-size: 16px&quot;&gt;&lt;b&gt;&lt;div style=&quot;text-align: left&quot;&gt;%c4Name%&lt;/div&gt;&lt;/b&gt;&lt;/font&gt;&lt;div style=&quot;text-align: left&quot;&gt;[%c4Application%]&lt;/div&gt;" id="LxKQGS648OkQD__flQ3X-71">
          <mxCell style="rounded=1;fontSize=11;whiteSpace=wrap;html=1;dashed=1;arcSize=20;fillColor=none;strokeColor=#666666;fontColor=#333333;labelBackgroundColor=none;align=left;verticalAlign=bottom;labelBorderColor=none;spacingTop=0;spacing=10;dashPattern=8 4;metaEdit=1;rotatable=0;perimeter=rectanglePerimeter;noLabel=0;labelPadding=0;allowArrows=0;connectable=0;expand=0;recursiveResize=0;editable=1;pointerEvents=0;absoluteArcSize=1;points=[[0.25,0,0],[0.5,0,0],[0.75,0,0],[1,0.25,0],[1,0.5,0],[1,0.75,0],[0.75,1,0],[0.5,1,0],[0.25,1,0],[0,0.75,0],[0,0.5,0],[0,0.25,0]];" parent="1" vertex="1">
            <mxGeometry x="170" y="210" width="160" height="50" as="geometry" />
          </mxCell>
        </object>
        <object placeholders="1" c4Name="build Repo" c4Type="SystemScopeBoundary" c4Application="Git / SVN" label="&lt;font style=&quot;font-size: 16px&quot;&gt;&lt;b&gt;&lt;div style=&quot;text-align: left&quot;&gt;%c4Name%&lt;/div&gt;&lt;/b&gt;&lt;/font&gt;&lt;div style=&quot;text-align: left&quot;&gt;[%c4Application%]&lt;/div&gt;" id="LxKQGS648OkQD__flQ3X-72">
          <mxCell style="rounded=1;fontSize=11;whiteSpace=wrap;html=1;dashed=1;arcSize=20;fillColor=none;strokeColor=#666666;fontColor=#333333;labelBackgroundColor=none;align=left;verticalAlign=bottom;labelBorderColor=none;spacingTop=0;spacing=10;dashPattern=8 4;metaEdit=1;rotatable=0;perimeter=rectanglePerimeter;noLabel=0;labelPadding=0;allowArrows=0;connectable=0;expand=0;recursiveResize=0;editable=1;pointerEvents=0;absoluteArcSize=1;points=[[0.25,0,0],[0.5,0,0],[0.75,0,0],[1,0.25,0],[1,0.5,0],[1,0.75,0],[0.75,1,0],[0.5,1,0],[0.25,1,0],[0,0.75,0],[0,0.5,0],[0,0.25,0]];" parent="1" vertex="1">
            <mxGeometry x="170" y="150" width="160" height="50" as="geometry" />
          </mxCell>
        </object>
        <object placeholders="1" c4Name="UI Repo" c4Type="SystemScopeBoundary" c4Application="Git / SVN" label="&lt;font style=&quot;font-size: 16px&quot;&gt;&lt;b&gt;&lt;div style=&quot;text-align: left&quot;&gt;%c4Name%&lt;/div&gt;&lt;/b&gt;&lt;/font&gt;&lt;div style=&quot;text-align: left&quot;&gt;[%c4Application%]&lt;/div&gt;" id="LxKQGS648OkQD__flQ3X-73">
          <mxCell style="rounded=1;fontSize=11;whiteSpace=wrap;html=1;dashed=1;arcSize=20;fillColor=none;strokeColor=#666666;fontColor=#333333;labelBackgroundColor=none;align=left;verticalAlign=bottom;labelBorderColor=none;spacingTop=0;spacing=10;dashPattern=8 4;metaEdit=1;rotatable=0;perimeter=rectanglePerimeter;noLabel=0;labelPadding=0;allowArrows=0;connectable=0;expand=0;recursiveResize=0;editable=1;pointerEvents=0;absoluteArcSize=1;points=[[0.25,0,0],[0.5,0,0],[0.75,0,0],[1,0.25,0],[1,0.5,0],[1,0.75,0],[0.75,1,0],[0.5,1,0],[0.25,1,0],[0,0.75,0],[0,0.5,0],[0,0.25,0]];" parent="1" vertex="1">
            <mxGeometry x="170" y="90" width="160" height="50" as="geometry" />
          </mxCell>
        </object>
        <object placeholders="1" c4Name="biz" c4Type="SystemScopeBoundary" c4Application="Modules" label="&lt;font style=&quot;font-size: 16px&quot;&gt;&lt;b&gt;&lt;div style=&quot;text-align: left&quot;&gt;%c4Name%&lt;/div&gt;&lt;/b&gt;&lt;/font&gt;&lt;div style=&quot;text-align: left&quot;&gt;[%c4Application%]&lt;/div&gt;" id="LxKQGS648OkQD__flQ3X-75">
          <mxCell style="rounded=1;fontSize=11;whiteSpace=wrap;html=1;dashed=1;arcSize=20;fillColor=#f8cecc;strokeColor=#b85450;labelBackgroundColor=none;align=left;verticalAlign=bottom;labelBorderColor=none;spacingTop=0;spacing=10;dashPattern=8 4;metaEdit=1;rotatable=0;perimeter=rectanglePerimeter;noLabel=0;labelPadding=0;allowArrows=0;connectable=0;expand=0;recursiveResize=0;editable=1;pointerEvents=0;absoluteArcSize=1;points=[[0.25,0,0],[0.5,0,0],[0.75,0,0],[1,0.25,0],[1,0.5,0],[1,0.75,0],[0.75,1,0],[0.5,1,0],[0.25,1,0],[0,0.75,0],[0,0.5,0],[0,0.25,0]];" parent="1" vertex="1">
            <mxGeometry x="230" y="930" width="350" height="70" as="geometry" />
          </mxCell>
        </object>
        <object placeholders="1" c4Name="vidaatvjs" c4Type="SystemScopeBoundary" c4Application="Modules" label="&lt;font style=&quot;font-size: 16px&quot;&gt;&lt;b&gt;&lt;div style=&quot;text-align: left&quot;&gt;%c4Name%&lt;/div&gt;&lt;/b&gt;&lt;/font&gt;&lt;div style=&quot;text-align: left&quot;&gt;[%c4Application%]&lt;/div&gt;" id="LxKQGS648OkQD__flQ3X-76">
          <mxCell style="rounded=1;fontSize=11;whiteSpace=wrap;html=1;dashed=1;arcSize=20;fillColor=#d5e8d4;strokeColor=#82b366;labelBackgroundColor=none;align=left;verticalAlign=bottom;labelBorderColor=none;spacingTop=0;spacing=10;dashPattern=8 4;metaEdit=1;rotatable=0;perimeter=rectanglePerimeter;noLabel=0;labelPadding=0;allowArrows=0;connectable=0;expand=0;recursiveResize=0;editable=1;pointerEvents=0;absoluteArcSize=1;points=[[0.25,0,0],[0.5,0,0],[0.75,0,0],[1,0.25,0],[1,0.5,0],[1,0.75,0],[0.75,1,0],[0.5,1,0],[0.25,1,0],[0,0.75,0],[0,0.5,0],[0,0.25,0]];" parent="1" vertex="1">
            <mxGeometry x="600" y="930" width="350" height="70" as="geometry" />
          </mxCell>
        </object>
        <object placeholders="1" c4Name="WebRunning" c4Type="SystemScopeBoundary" c4Application="Modules" label="&lt;font style=&quot;font-size: 16px&quot;&gt;&lt;b&gt;&lt;div style=&quot;text-align: left&quot;&gt;%c4Name%&lt;/div&gt;&lt;/b&gt;&lt;/font&gt;&lt;div style=&quot;text-align: left&quot;&gt;[%c4Application%]&lt;/div&gt;" id="LxKQGS648OkQD__flQ3X-78">
          <mxCell style="rounded=1;fontSize=11;whiteSpace=wrap;html=1;dashed=1;arcSize=20;fillColor=#d5e8d4;strokeColor=#82b366;labelBackgroundColor=none;align=left;verticalAlign=bottom;labelBorderColor=none;spacingTop=0;spacing=10;dashPattern=8 4;metaEdit=1;rotatable=0;perimeter=rectanglePerimeter;noLabel=0;labelPadding=0;allowArrows=0;connectable=0;expand=0;recursiveResize=0;editable=1;pointerEvents=0;absoluteArcSize=1;points=[[0.25,0,0],[0.5,0,0],[0.75,0,0],[1,0.25,0],[1,0.5,0],[1,0.75,0],[0.75,1,0],[0.5,1,0],[0.25,1,0],[0,0.75,0],[0,0.5,0],[0,0.25,0]];" parent="1" vertex="1">
            <mxGeometry x="740" y="670" width="210" height="110" as="geometry" />
          </mxCell>
        </object>
        <mxCell id="LxKQGS648OkQD__flQ3X-82" value="..." style="rounded=1;whiteSpace=wrap;html=1;fillColor=#fff2cc;strokeColor=#d6b656;" parent="1" vertex="1">
          <mxGeometry x="120" y="800" width="70" height="50" as="geometry" />
        </mxCell>
        <mxCell id="LxKQGS648OkQD__flQ3X-83" value="Web&lt;br&gt;Compiler" style="rounded=1;whiteSpace=wrap;html=1;fillColor=#d5e8d4;strokeColor=#82b366;" parent="1" vertex="1">
          <mxGeometry x="120" y="880" width="70" height="50" as="geometry" />
        </mxCell>
        <mxCell id="LxKQGS648OkQD__flQ3X-84" value="key" style="rounded=1;whiteSpace=wrap;html=1;fillColor=none;" parent="1" vertex="1">
          <mxGeometry x="530" y="820" width="120" height="40" as="geometry" />
        </mxCell>
        <mxCell id="LxKQGS648OkQD__flQ3X-85" value="message" style="rounded=1;whiteSpace=wrap;html=1;fillColor=none;" parent="1" vertex="1">
          <mxGeometry x="670" y="820" width="120" height="40" as="geometry" />
        </mxCell>
        <mxCell id="LxKQGS648OkQD__flQ3X-86" value="..." style="rounded=1;whiteSpace=wrap;html=1;fillColor=none;" parent="1" vertex="1">
          <mxGeometry x="810" y="820" width="30" height="40" as="geometry" />
        </mxCell>
        <mxCell id="LxKQGS648OkQD__flQ3X-88" value="..." style="rounded=1;whiteSpace=wrap;html=1;fillColor=none;" parent="1" vertex="1">
          <mxGeometry x="310" y="945" width="80" height="40" as="geometry" />
        </mxCell>
        <mxCell id="LxKQGS648OkQD__flQ3X-89" value="..." style="rounded=1;whiteSpace=wrap;html=1;fillColor=none;" parent="1" vertex="1">
          <mxGeometry x="420" y="945" width="80" height="40" as="geometry" />
        </mxCell>
        <mxCell id="LxKQGS648OkQD__flQ3X-90" value="..." style="rounded=1;whiteSpace=wrap;html=1;fillColor=none;" parent="1" vertex="1">
          <mxGeometry x="530" y="945" width="30" height="40" as="geometry" />
        </mxCell>
        <mxCell id="LxKQGS648OkQD__flQ3X-98" value="..." style="rounded=1;whiteSpace=wrap;html=1;fillColor=none;" parent="1" vertex="1">
          <mxGeometry x="900" y="945" width="30" height="40" as="geometry" />
        </mxCell>
        <mxCell id="LxKQGS648OkQD__flQ3X-99" value="..." style="rounded=1;whiteSpace=wrap;html=1;fillColor=none;" parent="1" vertex="1">
          <mxGeometry x="800" y="945" width="80" height="40" as="geometry" />
        </mxCell>
        <mxCell id="LxKQGS648OkQD__flQ3X-100" value="..." style="rounded=1;whiteSpace=wrap;html=1;fillColor=none;" parent="1" vertex="1">
          <mxGeometry x="700" y="945" width="80" height="40" as="geometry" />
        </mxCell>
        <mxCell id="LxKQGS648OkQD__flQ3X-103" value="Router" style="rounded=1;whiteSpace=wrap;html=1;fillColor=none;" parent="1" vertex="1">
          <mxGeometry x="755" y="690" width="55" height="40" as="geometry" />
        </mxCell>
        <mxCell id="LxKQGS648OkQD__flQ3X-104" value="Store" style="rounded=1;whiteSpace=wrap;html=1;fillColor=none;" parent="1" vertex="1">
          <mxGeometry x="827" y="690" width="55" height="40" as="geometry" />
        </mxCell>
        <mxCell id="LxKQGS648OkQD__flQ3X-106" value="..." style="rounded=1;whiteSpace=wrap;html=1;fillColor=none;" parent="1" vertex="1">
          <mxGeometry x="900" y="690" width="30" height="40" as="geometry" />
        </mxCell>
        <mxCell id="LxKQGS648OkQD__flQ3X-107" value="Store" style="rounded=1;whiteSpace=wrap;html=1;fillColor=#d5e8d4;strokeColor=#82b366;" parent="1" vertex="1">
          <mxGeometry x="814.5" y="560" width="80" height="40" as="geometry" />
        </mxCell>
        <mxCell id="LxKQGS648OkQD__flQ3X-108" value="..." style="rounded=1;whiteSpace=wrap;html=1;fillColor=#d5e8d4;strokeColor=#82b366;" parent="1" vertex="1">
          <mxGeometry x="910" y="560" width="30" height="40" as="geometry" />
        </mxCell>
        <mxCell id="LxKQGS648OkQD__flQ3X-109" value="内部兼容，打包成多套" style="whiteSpace=wrap;html=1;rounded=1;arcSize=50;align=center;verticalAlign=middle;strokeWidth=1;autosize=1;spacing=4;treeFolding=1;treeMoving=1;newEdgeStyle={&quot;edgeStyle&quot;:&quot;entityRelationEdgeStyle&quot;,&quot;startArrow&quot;:&quot;none&quot;,&quot;endArrow&quot;:&quot;none&quot;,&quot;segment&quot;:10,&quot;curved&quot;:1,&quot;sourcePerimeterSpacing&quot;:0,&quot;targetPerimeterSpacing&quot;:0};dashed=1;dashPattern=1 4;strokeColor=default;fontFamily=Helvetica;fontSize=16;fontColor=#000000;fillColor=none;" parent="1" vertex="1">
          <mxGeometry x="1000" y="920" width="200" height="40" as="geometry" />
        </mxCell>
        <mxCell id="LxKQGS648OkQD__flQ3X-110" value="" style="edgeStyle=entityRelationEdgeStyle;startArrow=none;endArrow=none;segment=10;curved=1;sourcePerimeterSpacing=0;targetPerimeterSpacing=0;rounded=0;fontFamily=Helvetica;fontSize=16;fontColor=#FF3333;" parent="1" target="LxKQGS648OkQD__flQ3X-109" edge="1">
          <mxGeometry relative="1" as="geometry">
            <mxPoint x="940" y="980" as="sourcePoint" />
          </mxGeometry>
        </mxCell>
        <mxCell id="LxKQGS648OkQD__flQ3X-111" value="公用太少，索性重写" style="whiteSpace=wrap;html=1;rounded=1;arcSize=50;align=center;verticalAlign=middle;strokeWidth=1;autosize=1;spacing=4;treeFolding=1;treeMoving=1;newEdgeStyle={&quot;edgeStyle&quot;:&quot;entityRelationEdgeStyle&quot;,&quot;startArrow&quot;:&quot;none&quot;,&quot;endArrow&quot;:&quot;none&quot;,&quot;segment&quot;:10,&quot;curved&quot;:1,&quot;sourcePerimeterSpacing&quot;:0,&quot;targetPerimeterSpacing&quot;:0};dashed=1;dashPattern=1 4;strokeColor=default;fontFamily=Helvetica;fontSize=16;fontColor=#000000;fillColor=none;" parent="1" vertex="1">
          <mxGeometry x="1000" y="680" width="190" height="40" as="geometry" />
        </mxCell>
        <mxCell id="LxKQGS648OkQD__flQ3X-112" value="" style="edgeStyle=entityRelationEdgeStyle;startArrow=none;endArrow=none;segment=10;curved=1;sourcePerimeterSpacing=0;targetPerimeterSpacing=0;rounded=0;fontFamily=Helvetica;fontSize=16;fontColor=#000000;" parent="1" target="LxKQGS648OkQD__flQ3X-111" edge="1">
          <mxGeometry relative="1" as="geometry">
            <mxPoint x="920" y="760" as="sourcePoint" />
          </mxGeometry>
        </mxCell>
        <mxCell id="LxKQGS648OkQD__flQ3X-113" value="公用，但改为按需引入" style="whiteSpace=wrap;html=1;rounded=1;arcSize=50;align=center;verticalAlign=middle;strokeWidth=1;autosize=1;spacing=4;treeFolding=1;treeMoving=1;newEdgeStyle={&quot;edgeStyle&quot;:&quot;entityRelationEdgeStyle&quot;,&quot;startArrow&quot;:&quot;none&quot;,&quot;endArrow&quot;:&quot;none&quot;,&quot;segment&quot;:10,&quot;curved&quot;:1,&quot;sourcePerimeterSpacing&quot;:0,&quot;targetPerimeterSpacing&quot;:0};dashed=1;dashPattern=1 4;strokeColor=default;fontFamily=Helvetica;fontSize=16;fontColor=#000000;fillColor=none;" parent="1" vertex="1">
          <mxGeometry x="1000" y="800" width="200" height="40" as="geometry" />
        </mxCell>
        <mxCell id="LxKQGS648OkQD__flQ3X-114" value="" style="edgeStyle=entityRelationEdgeStyle;startArrow=none;endArrow=none;segment=10;curved=1;sourcePerimeterSpacing=0;targetPerimeterSpacing=0;rounded=0;fontFamily=Helvetica;fontSize=16;fontColor=#000000;" parent="1" target="LxKQGS648OkQD__flQ3X-113" edge="1">
          <mxGeometry relative="1" as="geometry">
            <mxPoint x="920" y="882" as="sourcePoint" />
          </mxGeometry>
        </mxCell>
        <mxCell id="qEtNfLs-Ba1cGcSgvJJk-1" value="..." style="rounded=1;whiteSpace=wrap;html=1;fillColor=none;" parent="1" vertex="1">
          <mxGeometry y="2440" width="1360" height="40" as="geometry" />
        </mxCell>
        <mxCell id="qEtNfLs-Ba1cGcSgvJJk-3" value="&lt;p style=&quot;line-height: 100%;&quot;&gt;&lt;/p&gt;&lt;h1 style=&quot;line-height: 90%;&quot;&gt;&lt;b style=&quot;background-color: initial; font-size: 12px;&quot;&gt;&lt;font style=&quot;font-size: 24px;&quot; color=&quot;#ff3333&quot;&gt;各子模块设计（第一版）：&lt;/font&gt;&lt;/b&gt;&lt;br&gt;&lt;/h1&gt;&lt;p&gt;&lt;/p&gt;" style="text;html=1;align=center;verticalAlign=middle;resizable=0;points=[];autosize=1;strokeColor=none;fillColor=none;" parent="1" vertex="1">
          <mxGeometry x="80" y="1200" width="310" height="70" as="geometry" />
        </mxCell>
        <mxCell id="uBexPZzhhspZ9HFsllpv-3" style="edgeStyle=orthogonalEdgeStyle;rounded=0;orthogonalLoop=1;jettySize=auto;html=1;exitX=0.5;exitY=1;exitDx=0;exitDy=0;entryX=0.5;entryY=0.1;entryDx=0;entryDy=0;entryPerimeter=0;" parent="1" source="qEtNfLs-Ba1cGcSgvJJk-4" target="uBexPZzhhspZ9HFsllpv-2" edge="1">
          <mxGeometry relative="1" as="geometry" />
        </mxCell>
        <mxCell id="qEtNfLs-Ba1cGcSgvJJk-4" value="Entry" style="rounded=1;whiteSpace=wrap;html=1;fillColor=none;" parent="1" vertex="1">
          <mxGeometry x="200" y="1280" width="120" height="40" as="geometry" />
        </mxCell>
        <object placeholders="1" c4Name="PC" c4Type="SystemScopeBoundary" c4Application="Platform Browser" label="&lt;font style=&quot;font-size: 16px&quot;&gt;&lt;b&gt;&lt;div style=&quot;text-align: left&quot;&gt;%c4Name%&lt;/div&gt;&lt;/b&gt;&lt;/font&gt;&lt;div style=&quot;text-align: left&quot;&gt;[%c4Application%]&lt;/div&gt;" id="qEtNfLs-Ba1cGcSgvJJk-8">
          <mxCell style="rounded=1;fontSize=11;whiteSpace=wrap;html=1;dashed=1;arcSize=20;fillColor=#fff2cc;strokeColor=#d6b656;labelBackgroundColor=none;align=left;verticalAlign=bottom;labelBorderColor=none;spacingTop=0;spacing=10;dashPattern=8 4;metaEdit=1;rotatable=0;perimeter=rectanglePerimeter;noLabel=0;labelPadding=0;allowArrows=0;connectable=0;expand=0;recursiveResize=0;editable=1;pointerEvents=0;absoluteArcSize=1;points=[[0.25,0,0],[0.5,0,0],[0.75,0,0],[1,0.25,0],[1,0.5,0],[1,0.75,0],[0.75,1,0],[0.5,1,0],[0.25,1,0],[0,0.75,0],[0,0.5,0],[0,0.25,0]];" parent="1" vertex="1">
            <mxGeometry x="80" y="1100" width="160" height="50" as="geometry" />
          </mxCell>
        </object>
        <mxCell id="uBexPZzhhspZ9HFsllpv-5" style="edgeStyle=orthogonalEdgeStyle;rounded=0;orthogonalLoop=1;jettySize=auto;html=1;exitX=0;exitY=0.5;exitDx=0;exitDy=0;entryX=0.5;entryY=0;entryDx=0;entryDy=0;" parent="1" source="uBexPZzhhspZ9HFsllpv-2" target="uBexPZzhhspZ9HFsllpv-4" edge="1">
          <mxGeometry relative="1" as="geometry" />
        </mxCell>
        <mxCell id="uBexPZzhhspZ9HFsllpv-8" value="UI Modules" style="edgeLabel;html=1;align=center;verticalAlign=middle;resizable=0;points=[];" parent="uBexPZzhhspZ9HFsllpv-5" vertex="1" connectable="0">
          <mxGeometry x="-0.125" y="-1" relative="1" as="geometry">
            <mxPoint x="1" y="-9" as="offset" />
          </mxGeometry>
        </mxCell>
        <mxCell id="uBexPZzhhspZ9HFsllpv-7" style="edgeStyle=orthogonalEdgeStyle;rounded=0;orthogonalLoop=1;jettySize=auto;html=1;exitX=1;exitY=0.5;exitDx=0;exitDy=0;entryX=0.5;entryY=0;entryDx=0;entryDy=0;fillColor=#d5e8d4;strokeColor=#82b366;" parent="1" source="uBexPZzhhspZ9HFsllpv-2" target="uBexPZzhhspZ9HFsllpv-6" edge="1">
          <mxGeometry relative="1" as="geometry" />
        </mxCell>
        <mxCell id="uBexPZzhhspZ9HFsllpv-9" value="Web App" style="edgeLabel;html=1;align=center;verticalAlign=middle;resizable=0;points=[];" parent="uBexPZzhhspZ9HFsllpv-7" vertex="1" connectable="0">
          <mxGeometry x="-0.15" y="5" relative="1" as="geometry">
            <mxPoint x="4" y="-5" as="offset" />
          </mxGeometry>
        </mxCell>
        <mxCell id="uBexPZzhhspZ9HFsllpv-2" value="build&lt;br&gt;type" style="rhombus;whiteSpace=wrap;html=1;fillColor=#d5e8d4;rounded=1;strokeColor=#82b366;" parent="1" vertex="1">
          <mxGeometry x="220" y="1360" width="80" height="80" as="geometry" />
        </mxCell>
        <mxCell id="uBexPZzhhspZ9HFsllpv-11" style="edgeStyle=orthogonalEdgeStyle;rounded=0;orthogonalLoop=1;jettySize=auto;html=1;exitX=0.5;exitY=1;exitDx=0;exitDy=0;entryX=0.5;entryY=0;entryDx=0;entryDy=0;" parent="1" source="uBexPZzhhspZ9HFsllpv-4" target="uBexPZzhhspZ9HFsllpv-10" edge="1">
          <mxGeometry relative="1" as="geometry" />
        </mxCell>
        <mxCell id="uBexPZzhhspZ9HFsllpv-4" value="UI / CBB build" style="rounded=1;whiteSpace=wrap;html=1;fillColor=none;" parent="1" vertex="1">
          <mxGeometry x="80" y="1440" width="120" height="40" as="geometry" />
        </mxCell>
        <mxCell id="uBexPZzhhspZ9HFsllpv-12" style="edgeStyle=orthogonalEdgeStyle;rounded=0;orthogonalLoop=1;jettySize=auto;html=1;exitX=0.5;exitY=1;exitDx=0;exitDy=0;entryX=0.5;entryY=0;entryDx=0;entryDy=0;fillColor=#d5e8d4;strokeColor=#82b366;" parent="1" source="uBexPZzhhspZ9HFsllpv-6" target="uBexPZzhhspZ9HFsllpv-10" edge="1">
          <mxGeometry relative="1" as="geometry" />
        </mxCell>
        <mxCell id="uBexPZzhhspZ9HFsllpv-6" value="WebCompiler" style="rounded=1;whiteSpace=wrap;html=1;fillColor=#d5e8d4;strokeColor=#82b366;" parent="1" vertex="1">
          <mxGeometry x="320" y="1440" width="120" height="40" as="geometry" />
        </mxCell>
        <mxCell id="uBexPZzhhspZ9HFsllpv-14" style="edgeStyle=orthogonalEdgeStyle;rounded=0;orthogonalLoop=1;jettySize=auto;html=1;exitX=0.5;exitY=1;exitDx=0;exitDy=0;entryX=0.5;entryY=0;entryDx=0;entryDy=0;" parent="1" source="uBexPZzhhspZ9HFsllpv-10" target="uBexPZzhhspZ9HFsllpv-13" edge="1">
          <mxGeometry relative="1" as="geometry" />
        </mxCell>
        <mxCell id="uBexPZzhhspZ9HFsllpv-10" value="dist" style="rounded=1;whiteSpace=wrap;html=1;fillColor=none;" parent="1" vertex="1">
          <mxGeometry x="200" y="1520" width="120" height="40" as="geometry" />
        </mxCell>
        <mxCell id="uBexPZzhhspZ9HFsllpv-16" style="edgeStyle=orthogonalEdgeStyle;rounded=0;orthogonalLoop=1;jettySize=auto;html=1;exitX=0.5;exitY=1;exitDx=0;exitDy=0;entryX=0.5;entryY=0;entryDx=0;entryDy=0;shape=flexArrow;" parent="1" source="uBexPZzhhspZ9HFsllpv-13" target="uBexPZzhhspZ9HFsllpv-15" edge="1">
          <mxGeometry relative="1" as="geometry" />
        </mxCell>
        <mxCell id="uBexPZzhhspZ9HFsllpv-13" value="deploy" style="rounded=1;whiteSpace=wrap;html=1;fillColor=none;" parent="1" vertex="1">
          <mxGeometry x="200" y="1600" width="120" height="40" as="geometry" />
        </mxCell>
        <mxCell id="uBexPZzhhspZ9HFsllpv-20" style="edgeStyle=orthogonalEdgeStyle;rounded=0;orthogonalLoop=1;jettySize=auto;html=1;exitX=0;exitY=0.5;exitDx=0;exitDy=0;entryX=0.5;entryY=0;entryDx=0;entryDy=0;" parent="1" source="uBexPZzhhspZ9HFsllpv-15" target="uBexPZzhhspZ9HFsllpv-17" edge="1">
          <mxGeometry relative="1" as="geometry" />
        </mxCell>
        <mxCell id="uBexPZzhhspZ9HFsllpv-21" value="UI Modules" style="edgeLabel;html=1;align=center;verticalAlign=middle;resizable=0;points=[];" parent="uBexPZzhhspZ9HFsllpv-20" vertex="1" connectable="0">
          <mxGeometry x="0.0143" y="-2" relative="1" as="geometry">
            <mxPoint x="11" y="-8" as="offset" />
          </mxGeometry>
        </mxCell>
        <mxCell id="uBexPZzhhspZ9HFsllpv-22" style="edgeStyle=orthogonalEdgeStyle;rounded=0;orthogonalLoop=1;jettySize=auto;html=1;exitX=1;exitY=0.5;exitDx=0;exitDy=0;entryX=0.5;entryY=0;entryDx=0;entryDy=0;fillColor=#d5e8d4;strokeColor=#82b366;" parent="1" source="uBexPZzhhspZ9HFsllpv-15" target="uBexPZzhhspZ9HFsllpv-19" edge="1">
          <mxGeometry relative="1" as="geometry" />
        </mxCell>
        <mxCell id="uBexPZzhhspZ9HFsllpv-23" value="Web App" style="edgeLabel;html=1;align=center;verticalAlign=middle;resizable=0;points=[];" parent="uBexPZzhhspZ9HFsllpv-22" vertex="1" connectable="0">
          <mxGeometry x="-0.1286" relative="1" as="geometry">
            <mxPoint x="3" y="-10" as="offset" />
          </mxGeometry>
        </mxCell>
        <mxCell id="uBexPZzhhspZ9HFsllpv-15" value="start-up&lt;br&gt;type" style="rhombus;whiteSpace=wrap;html=1;fillColor=#d5e8d4;rounded=1;strokeColor=#82b366;" parent="1" vertex="1">
          <mxGeometry x="220" y="1680" width="80" height="80" as="geometry" />
        </mxCell>
        <mxCell id="uBexPZzhhspZ9HFsllpv-27" style="edgeStyle=orthogonalEdgeStyle;rounded=0;orthogonalLoop=1;jettySize=auto;html=1;exitX=0.5;exitY=1;exitDx=0;exitDy=0;entryX=0.5;entryY=0;entryDx=0;entryDy=0;" parent="1" source="uBexPZzhhspZ9HFsllpv-17" target="uBexPZzhhspZ9HFsllpv-18" edge="1">
          <mxGeometry relative="1" as="geometry" />
        </mxCell>
        <mxCell id="uBexPZzhhspZ9HFsllpv-17" value="power on" style="rounded=1;whiteSpace=wrap;html=1;fillColor=none;" parent="1" vertex="1">
          <mxGeometry x="80" y="1760" width="120" height="40" as="geometry" />
        </mxCell>
        <mxCell id="uBexPZzhhspZ9HFsllpv-28" style="edgeStyle=orthogonalEdgeStyle;rounded=0;orthogonalLoop=1;jettySize=auto;html=1;exitX=0.5;exitY=1;exitDx=0;exitDy=0;entryX=0.5;entryY=0;entryDx=0;entryDy=0;" parent="1" source="uBexPZzhhspZ9HFsllpv-18" target="uBexPZzhhspZ9HFsllpv-25" edge="1">
          <mxGeometry relative="1" as="geometry" />
        </mxCell>
        <mxCell id="uBexPZzhhspZ9HFsllpv-18" value="vre" style="rounded=1;whiteSpace=wrap;html=1;fillColor=none;" parent="1" vertex="1">
          <mxGeometry x="80" y="1840" width="120" height="40" as="geometry" />
        </mxCell>
        <mxCell id="uBexPZzhhspZ9HFsllpv-29" style="edgeStyle=orthogonalEdgeStyle;rounded=0;orthogonalLoop=1;jettySize=auto;html=1;exitX=0.5;exitY=1;exitDx=0;exitDy=0;entryX=0.5;entryY=0;entryDx=0;entryDy=0;fillColor=#d5e8d4;strokeColor=#82b366;" parent="1" source="uBexPZzhhspZ9HFsllpv-19" target="uBexPZzhhspZ9HFsllpv-24" edge="1">
          <mxGeometry relative="1" as="geometry" />
        </mxCell>
        <mxCell id="uBexPZzhhspZ9HFsllpv-19" value="browser&amp;nbsp; launch" style="rounded=1;whiteSpace=wrap;html=1;fillColor=#d5e8d4;strokeColor=#82b366;" parent="1" vertex="1">
          <mxGeometry x="320" y="1760" width="120" height="40" as="geometry" />
        </mxCell>
        <mxCell id="uBexPZzhhspZ9HFsllpv-30" style="edgeStyle=orthogonalEdgeStyle;rounded=0;orthogonalLoop=1;jettySize=auto;html=1;exitX=0.5;exitY=1;exitDx=0;exitDy=0;entryX=0.5;entryY=0;entryDx=0;entryDy=0;fillColor=#d5e8d4;strokeColor=#82b366;" parent="1" source="uBexPZzhhspZ9HFsllpv-24" target="uBexPZzhhspZ9HFsllpv-26" edge="1">
          <mxGeometry relative="1" as="geometry" />
        </mxCell>
        <mxCell id="uBexPZzhhspZ9HFsllpv-24" value="WebRunning" style="rounded=1;whiteSpace=wrap;html=1;fillColor=#d5e8d4;strokeColor=#82b366;" parent="1" vertex="1">
          <mxGeometry x="320" y="1840" width="120" height="40" as="geometry" />
        </mxCell>
        <mxCell id="uBexPZzhhspZ9HFsllpv-32" style="edgeStyle=orthogonalEdgeStyle;rounded=0;orthogonalLoop=1;jettySize=auto;html=1;exitX=0.5;exitY=1;exitDx=0;exitDy=0;entryX=0.5;entryY=0;entryDx=0;entryDy=0;" parent="1" source="uBexPZzhhspZ9HFsllpv-25" target="uBexPZzhhspZ9HFsllpv-31" edge="1">
          <mxGeometry relative="1" as="geometry" />
        </mxCell>
        <mxCell id="uBexPZzhhspZ9HFsllpv-25" value="biz" style="rounded=1;whiteSpace=wrap;html=1;fillColor=none;" parent="1" vertex="1">
          <mxGeometry x="80" y="1920" width="120" height="40" as="geometry" />
        </mxCell>
        <mxCell id="uBexPZzhhspZ9HFsllpv-33" style="edgeStyle=orthogonalEdgeStyle;rounded=0;orthogonalLoop=1;jettySize=auto;html=1;exitX=0.5;exitY=1;exitDx=0;exitDy=0;entryX=0.5;entryY=0;entryDx=0;entryDy=0;fillColor=#d5e8d4;strokeColor=#82b366;" parent="1" source="uBexPZzhhspZ9HFsllpv-26" target="uBexPZzhhspZ9HFsllpv-31" edge="1">
          <mxGeometry relative="1" as="geometry" />
        </mxCell>
        <mxCell id="uBexPZzhhspZ9HFsllpv-26" value="vidaatvjs" style="rounded=1;whiteSpace=wrap;html=1;fillColor=#d5e8d4;strokeColor=#82b366;" parent="1" vertex="1">
          <mxGeometry x="320" y="1920" width="120" height="40" as="geometry" />
        </mxCell>
        <mxCell id="uBexPZzhhspZ9HFsllpv-36" style="edgeStyle=orthogonalEdgeStyle;rounded=0;orthogonalLoop=1;jettySize=auto;html=1;exitX=0.5;exitY=1;exitDx=0;exitDy=0;entryX=0.5;entryY=0;entryDx=0;entryDy=0;" parent="1" source="uBexPZzhhspZ9HFsllpv-31" target="uBexPZzhhspZ9HFsllpv-35" edge="1">
          <mxGeometry relative="1" as="geometry" />
        </mxCell>
        <mxCell id="uBexPZzhhspZ9HFsllpv-31" value="VUI" style="rounded=1;whiteSpace=wrap;html=1;fillColor=none;" parent="1" vertex="1">
          <mxGeometry x="200" y="2000" width="120" height="40" as="geometry" />
        </mxCell>
        <mxCell id="uBexPZzhhspZ9HFsllpv-35" value="load complete" style="rounded=1;whiteSpace=wrap;html=1;fillColor=none;" parent="1" vertex="1">
          <mxGeometry x="200" y="2080" width="120" height="40" as="geometry" />
        </mxCell>
        <mxCell id="TnwI4eyXMUjHDVIvLIpV-8" value="&lt;b&gt;&lt;font style=&quot;font-size: 14px;&quot;&gt;图例说明&lt;/font&gt;&lt;/b&gt;" style="swimlane;fontStyle=0;childLayout=stackLayout;horizontal=1;startSize=30;horizontalStack=0;resizeParent=1;resizeParentMax=0;resizeLast=0;collapsible=1;marginBottom=0;whiteSpace=wrap;html=1;" parent="1" vertex="1">
          <mxGeometry x="1000" y="520" width="160" height="120" as="geometry" />
        </mxCell>
        <mxCell id="TnwI4eyXMUjHDVIvLIpV-9" value="红色：差异部分" style="text;strokeColor=#b85450;fillColor=#f8cecc;align=center;verticalAlign=middle;spacingLeft=4;spacingRight=4;overflow=hidden;points=[[0,0.5],[1,0.5]];portConstraint=eastwest;rotatable=0;whiteSpace=wrap;html=1;" parent="TnwI4eyXMUjHDVIvLIpV-8" vertex="1">
          <mxGeometry y="30" width="160" height="30" as="geometry" />
        </mxCell>
        <mxCell id="TnwI4eyXMUjHDVIvLIpV-10" value="黄色：相同点" style="text;strokeColor=#d6b656;fillColor=#fff2cc;align=center;verticalAlign=middle;spacingLeft=4;spacingRight=4;overflow=hidden;points=[[0,0.5],[1,0.5]];portConstraint=eastwest;rotatable=0;whiteSpace=wrap;html=1;" parent="TnwI4eyXMUjHDVIvLIpV-8" vertex="1">
          <mxGeometry y="60" width="160" height="30" as="geometry" />
        </mxCell>
        <mxCell id="TnwI4eyXMUjHDVIvLIpV-11" value="绿色：新增部分" style="text;strokeColor=#82b366;fillColor=#d5e8d4;align=center;verticalAlign=middle;spacingLeft=4;spacingRight=4;overflow=hidden;points=[[0,0.5],[1,0.5]];portConstraint=eastwest;rotatable=0;whiteSpace=wrap;html=1;" parent="TnwI4eyXMUjHDVIvLIpV-8" vertex="1">
          <mxGeometry y="90" width="160" height="30" as="geometry" />
        </mxCell>
      </root>
    </mxGraphModel>
  </diagram>
  <diagram id="tB5lniQXx7v4U3VexSkj" name="WebCompiler">
    <mxGraphModel dx="1434" dy="764" grid="1" gridSize="10" guides="1" tooltips="1" connect="1" arrows="1" fold="1" page="1" pageScale="1" pageWidth="850" pageHeight="1100" math="0" shadow="0">
      <root>
        <mxCell id="0" />
        <mxCell id="1" parent="0" />
        <mxCell id="A4qBjmfrXXVflw_9Kbl0-2" value="" style="shape=umlLifeline;perimeter=lifelinePerimeter;whiteSpace=wrap;html=1;container=1;dropTarget=0;collapsible=0;recursiveResize=0;outlineConnect=0;portConstraint=eastwest;newEdgeStyle={&quot;edgeStyle&quot;:&quot;elbowEdgeStyle&quot;,&quot;elbow&quot;:&quot;vertical&quot;,&quot;curved&quot;:0,&quot;rounded&quot;:0};participant=umlActor;size=60;fillColor=#f8cecc;strokeColor=#b85450;strokeWidth=2;" parent="1" vertex="1">
          <mxGeometry x="40" y="80" width="40" height="680" as="geometry" />
        </mxCell>
        <mxCell id="A4qBjmfrXXVflw_9Kbl0-3" value="package.json" style="shape=umlLifeline;perimeter=lifelinePerimeter;whiteSpace=wrap;html=1;container=1;dropTarget=0;collapsible=0;recursiveResize=0;outlineConnect=0;portConstraint=eastwest;newEdgeStyle={&quot;edgeStyle&quot;:&quot;elbowEdgeStyle&quot;,&quot;elbow&quot;:&quot;vertical&quot;,&quot;curved&quot;:0,&quot;rounded&quot;:0};size=60;fillColor=#d5e8d4;strokeColor=#82b366;strokeWidth=2;" parent="1" vertex="1">
          <mxGeometry x="210" y="80" width="100" height="680" as="geometry" />
        </mxCell>
        <mxCell id="A4qBjmfrXXVflw_9Kbl0-5" value="" style="html=1;points=[];perimeter=orthogonalPerimeter;outlineConnect=0;targetShapes=umlLifeline;portConstraint=eastwest;newEdgeStyle={&quot;edgeStyle&quot;:&quot;elbowEdgeStyle&quot;,&quot;elbow&quot;:&quot;vertical&quot;,&quot;curved&quot;:0,&quot;rounded&quot;:0};" parent="A4qBjmfrXXVflw_9Kbl0-3" vertex="1">
          <mxGeometry x="45" y="80" width="10" height="40" as="geometry" />
        </mxCell>
        <mxCell id="A4qBjmfrXXVflw_9Kbl0-4" value="index.js" style="shape=umlLifeline;perimeter=lifelinePerimeter;whiteSpace=wrap;html=1;container=1;dropTarget=0;collapsible=0;recursiveResize=0;outlineConnect=0;portConstraint=eastwest;newEdgeStyle={&quot;edgeStyle&quot;:&quot;elbowEdgeStyle&quot;,&quot;elbow&quot;:&quot;vertical&quot;,&quot;curved&quot;:0,&quot;rounded&quot;:0};size=60;fillColor=#d5e8d4;strokeColor=#82b366;strokeWidth=2;" parent="1" vertex="1">
          <mxGeometry x="370" y="80" width="100" height="680" as="geometry" />
        </mxCell>
        <mxCell id="A4qBjmfrXXVflw_9Kbl0-18" value="" style="html=1;points=[];perimeter=orthogonalPerimeter;outlineConnect=0;targetShapes=umlLifeline;portConstraint=eastwest;newEdgeStyle={&quot;edgeStyle&quot;:&quot;elbowEdgeStyle&quot;,&quot;elbow&quot;:&quot;vertical&quot;,&quot;curved&quot;:0,&quot;rounded&quot;:0};" parent="A4qBjmfrXXVflw_9Kbl0-4" vertex="1">
          <mxGeometry x="45" y="120" width="10" height="40" as="geometry" />
        </mxCell>
        <mxCell id="A4qBjmfrXXVflw_9Kbl0-37" value="" style="html=1;points=[];perimeter=orthogonalPerimeter;outlineConnect=0;targetShapes=umlLifeline;portConstraint=eastwest;newEdgeStyle={&quot;edgeStyle&quot;:&quot;elbowEdgeStyle&quot;,&quot;elbow&quot;:&quot;vertical&quot;,&quot;curved&quot;:0,&quot;rounded&quot;:0};" parent="A4qBjmfrXXVflw_9Kbl0-4" vertex="1">
          <mxGeometry x="45" y="240" width="10" height="40" as="geometry" />
        </mxCell>
        <mxCell id="A4qBjmfrXXVflw_9Kbl0-45" value="" style="html=1;points=[];perimeter=orthogonalPerimeter;outlineConnect=0;targetShapes=umlLifeline;portConstraint=eastwest;newEdgeStyle={&quot;edgeStyle&quot;:&quot;elbowEdgeStyle&quot;,&quot;elbow&quot;:&quot;vertical&quot;,&quot;curved&quot;:0,&quot;rounded&quot;:0};" parent="A4qBjmfrXXVflw_9Kbl0-4" vertex="1">
          <mxGeometry x="45" y="360" width="10" height="40" as="geometry" />
        </mxCell>
        <mxCell id="A4qBjmfrXXVflw_9Kbl0-6" value="1. 执行 yarn dev/build 打包命令" style="html=1;verticalAlign=bottom;startArrow=oval;endArrow=block;startSize=8;edgeStyle=elbowEdgeStyle;elbow=vertical;curved=0;rounded=0;" parent="1" source="A4qBjmfrXXVflw_9Kbl0-2" target="A4qBjmfrXXVflw_9Kbl0-5" edge="1">
          <mxGeometry x="-0.0096" relative="1" as="geometry">
            <mxPoint x="150" y="160" as="sourcePoint" />
            <mxPoint as="offset" />
          </mxGeometry>
        </mxCell>
        <mxCell id="A4qBjmfrXXVflw_9Kbl0-8" value="&amp;nbsp; &amp;nbsp;build" style="shape=umlLifeline;perimeter=lifelinePerimeter;whiteSpace=wrap;html=1;container=1;dropTarget=0;collapsible=0;recursiveResize=0;outlineConnect=0;portConstraint=eastwest;newEdgeStyle={&quot;edgeStyle&quot;:&quot;elbowEdgeStyle&quot;,&quot;elbow&quot;:&quot;vertical&quot;,&quot;curved&quot;:0,&quot;rounded&quot;:0};participant=umlBoundary;size=60;fillColor=#fff2cc;strokeColor=#d6b656;strokeWidth=2;" parent="1" vertex="1">
          <mxGeometry x="1080" y="80" width="70" height="680" as="geometry" />
        </mxCell>
        <mxCell id="A4qBjmfrXXVflw_9Kbl0-31" value="" style="html=1;points=[];perimeter=orthogonalPerimeter;outlineConnect=0;targetShapes=umlLifeline;portConstraint=eastwest;newEdgeStyle={&quot;edgeStyle&quot;:&quot;elbowEdgeStyle&quot;,&quot;elbow&quot;:&quot;vertical&quot;,&quot;curved&quot;:0,&quot;rounded&quot;:0};" parent="A4qBjmfrXXVflw_9Kbl0-8" vertex="1">
          <mxGeometry x="30" y="160" width="10" height="80" as="geometry" />
        </mxCell>
        <mxCell id="A4qBjmfrXXVflw_9Kbl0-10" value="WebCompiler" style="shape=umlFrame;whiteSpace=wrap;html=1;pointerEvents=0;width=120;height=30;fillColor=#d5e8d4;strokeColor=#82b366;" parent="1" vertex="1">
          <mxGeometry x="160" y="40" width="880" height="110" as="geometry" />
        </mxCell>
        <mxCell id="A4qBjmfrXXVflw_9Kbl0-13" value="webapp/&lt;br&gt;commands/&lt;br&gt;index.js" style="shape=umlLifeline;perimeter=lifelinePerimeter;whiteSpace=wrap;html=1;container=1;dropTarget=0;collapsible=0;recursiveResize=0;outlineConnect=0;portConstraint=eastwest;newEdgeStyle={&quot;edgeStyle&quot;:&quot;elbowEdgeStyle&quot;,&quot;elbow&quot;:&quot;vertical&quot;,&quot;curved&quot;:0,&quot;rounded&quot;:0};size=60;fillColor=#d5e8d4;strokeColor=#82b366;strokeWidth=2;" parent="1" vertex="1">
          <mxGeometry x="530" y="80" width="100" height="680" as="geometry" />
        </mxCell>
        <mxCell id="A4qBjmfrXXVflw_9Kbl0-51" value="" style="html=1;points=[];perimeter=orthogonalPerimeter;outlineConnect=0;targetShapes=umlLifeline;portConstraint=eastwest;newEdgeStyle={&quot;edgeStyle&quot;:&quot;elbowEdgeStyle&quot;,&quot;elbow&quot;:&quot;vertical&quot;,&quot;curved&quot;:0,&quot;rounded&quot;:0};" parent="A4qBjmfrXXVflw_9Kbl0-13" vertex="1">
          <mxGeometry x="45" y="400" width="10" height="40" as="geometry" />
        </mxCell>
        <mxCell id="A4qBjmfrXXVflw_9Kbl0-14" value="dev.js&lt;br&gt;or&lt;br&gt;build.js" style="shape=umlLifeline;perimeter=lifelinePerimeter;whiteSpace=wrap;html=1;container=1;dropTarget=0;collapsible=0;recursiveResize=0;outlineConnect=0;portConstraint=eastwest;newEdgeStyle={&quot;edgeStyle&quot;:&quot;elbowEdgeStyle&quot;,&quot;elbow&quot;:&quot;vertical&quot;,&quot;curved&quot;:0,&quot;rounded&quot;:0};size=60;fillColor=#d5e8d4;strokeColor=#82b366;strokeWidth=2;" parent="1" vertex="1">
          <mxGeometry x="690" y="80" width="100" height="680" as="geometry" />
        </mxCell>
        <mxCell id="A4qBjmfrXXVflw_9Kbl0-53" value="" style="html=1;points=[];perimeter=orthogonalPerimeter;outlineConnect=0;targetShapes=umlLifeline;portConstraint=eastwest;newEdgeStyle={&quot;edgeStyle&quot;:&quot;elbowEdgeStyle&quot;,&quot;elbow&quot;:&quot;vertical&quot;,&quot;curved&quot;:0,&quot;rounded&quot;:0};" parent="A4qBjmfrXXVflw_9Kbl0-14" vertex="1">
          <mxGeometry x="45" y="440" width="10" height="40" as="geometry" />
        </mxCell>
        <mxCell id="A4qBjmfrXXVflw_9Kbl0-58" value="" style="html=1;points=[];perimeter=orthogonalPerimeter;outlineConnect=0;targetShapes=umlLifeline;portConstraint=eastwest;newEdgeStyle={&quot;edgeStyle&quot;:&quot;elbowEdgeStyle&quot;,&quot;elbow&quot;:&quot;vertical&quot;,&quot;curved&quot;:0,&quot;rounded&quot;:0};" parent="A4qBjmfrXXVflw_9Kbl0-14" vertex="1">
          <mxGeometry x="45" y="530" width="10" height="70" as="geometry" />
        </mxCell>
        <mxCell id="A4qBjmfrXXVflw_9Kbl0-15" value="webpack.dev.conf.js&lt;br&gt;or&lt;br&gt;webpack.build.conf.js" style="shape=umlLifeline;perimeter=lifelinePerimeter;whiteSpace=wrap;html=1;container=1;dropTarget=0;collapsible=0;recursiveResize=0;outlineConnect=0;portConstraint=eastwest;newEdgeStyle={&quot;edgeStyle&quot;:&quot;elbowEdgeStyle&quot;,&quot;elbow&quot;:&quot;vertical&quot;,&quot;curved&quot;:0,&quot;rounded&quot;:0};size=60;fillColor=#d5e8d4;strokeColor=#82b366;strokeWidth=2;" parent="1" vertex="1">
          <mxGeometry x="850" y="80" width="140" height="680" as="geometry" />
        </mxCell>
        <mxCell id="A4qBjmfrXXVflw_9Kbl0-55" value="" style="html=1;points=[];perimeter=orthogonalPerimeter;outlineConnect=0;targetShapes=umlLifeline;portConstraint=eastwest;newEdgeStyle={&quot;edgeStyle&quot;:&quot;elbowEdgeStyle&quot;,&quot;elbow&quot;:&quot;vertical&quot;,&quot;curved&quot;:0,&quot;rounded&quot;:0};" parent="A4qBjmfrXXVflw_9Kbl0-15" vertex="1">
          <mxGeometry x="65" y="480" width="10" height="80" as="geometry" />
        </mxCell>
        <mxCell id="A4qBjmfrXXVflw_9Kbl0-19" value="2.真正触发的执行文件" style="html=1;verticalAlign=bottom;startArrow=oval;endArrow=block;startSize=8;edgeStyle=elbowEdgeStyle;elbow=vertical;curved=0;rounded=0;" parent="1" source="A4qBjmfrXXVflw_9Kbl0-3" target="A4qBjmfrXXVflw_9Kbl0-18" edge="1">
          <mxGeometry relative="1" as="geometry">
            <mxPoint x="350" y="200" as="sourcePoint" />
          </mxGeometry>
        </mxCell>
        <mxCell id="A4qBjmfrXXVflw_9Kbl0-32" value="3. 调用 parseArgs 方法，获取 Args 启动参数" style="html=1;verticalAlign=bottom;endArrow=block;edgeStyle=elbowEdgeStyle;elbow=vertical;curved=0;rounded=0;" parent="1" target="A4qBjmfrXXVflw_9Kbl0-31" edge="1">
          <mxGeometry x="0.001" relative="1" as="geometry">
            <mxPoint x="419" y="250" as="sourcePoint" />
            <Array as="points">
              <mxPoint x="440" y="250" />
              <mxPoint x="780" y="240" />
            </Array>
            <mxPoint as="offset" />
          </mxGeometry>
        </mxCell>
        <mxCell id="A4qBjmfrXXVflw_9Kbl0-33" value="4. 返回 command 和 commandArgs 启动参数" style="html=1;verticalAlign=bottom;endArrow=open;dashed=1;endSize=8;edgeStyle=elbowEdgeStyle;elbow=vertical;curved=0;rounded=0;" parent="1" source="A4qBjmfrXXVflw_9Kbl0-31" target="A4qBjmfrXXVflw_9Kbl0-4" edge="1">
          <mxGeometry x="0.0012" relative="1" as="geometry">
            <mxPoint x="1040" y="365" as="targetPoint" />
            <Array as="points">
              <mxPoint x="1060" y="310" />
            </Array>
            <mxPoint as="offset" />
          </mxGeometry>
        </mxCell>
        <mxCell id="A4qBjmfrXXVflw_9Kbl0-35" value="&amp;nbsp; &amp;nbsp;WebApp" style="shape=umlLifeline;perimeter=lifelinePerimeter;whiteSpace=wrap;html=1;container=1;dropTarget=0;collapsible=0;recursiveResize=0;outlineConnect=0;portConstraint=eastwest;newEdgeStyle={&quot;edgeStyle&quot;:&quot;elbowEdgeStyle&quot;,&quot;elbow&quot;:&quot;vertical&quot;,&quot;curved&quot;:0,&quot;rounded&quot;:0};participant=umlBoundary;size=60;fillColor=#fff2cc;strokeColor=#d6b656;strokeWidth=2;" parent="1" vertex="1">
          <mxGeometry x="1200" y="80" width="80" height="680" as="geometry" />
        </mxCell>
        <mxCell id="A4qBjmfrXXVflw_9Kbl0-38" value="" style="html=1;points=[];perimeter=orthogonalPerimeter;outlineConnect=0;targetShapes=umlLifeline;portConstraint=eastwest;newEdgeStyle={&quot;edgeStyle&quot;:&quot;elbowEdgeStyle&quot;,&quot;elbow&quot;:&quot;vertical&quot;,&quot;curved&quot;:0,&quot;rounded&quot;:0};" parent="A4qBjmfrXXVflw_9Kbl0-35" vertex="1">
          <mxGeometry x="35" y="280" width="10" height="80" as="geometry" />
        </mxCell>
        <mxCell id="A4qBjmfrXXVflw_9Kbl0-39" value="5. 读取当前 App 的 appconfig.js 配置文件" style="html=1;verticalAlign=bottom;endArrow=block;edgeStyle=elbowEdgeStyle;elbow=vertical;curved=0;rounded=0;" parent="1" target="A4qBjmfrXXVflw_9Kbl0-38" edge="1">
          <mxGeometry relative="1" as="geometry">
            <mxPoint x="420" y="370" as="sourcePoint" />
            <Array as="points">
              <mxPoint x="970" y="370" />
              <mxPoint x="940" y="410" />
            </Array>
          </mxGeometry>
        </mxCell>
        <mxCell id="A4qBjmfrXXVflw_9Kbl0-40" value="6. 返回配置文件，读取 APP_NAME 和 LOW_APP_NAME 属性" style="html=1;verticalAlign=bottom;endArrow=open;dashed=1;endSize=8;edgeStyle=elbowEdgeStyle;elbow=vertical;curved=0;rounded=0;" parent="1" source="A4qBjmfrXXVflw_9Kbl0-38" edge="1">
          <mxGeometry relative="1" as="geometry">
            <mxPoint x="420" y="430" as="targetPoint" />
            <Array as="points">
              <mxPoint x="1020" y="430" />
              <mxPoint x="1010" y="470" />
            </Array>
          </mxGeometry>
        </mxCell>
        <mxCell id="A4qBjmfrXXVflw_9Kbl0-52" value="7. 处理不同的 commands 命令" style="html=1;verticalAlign=bottom;startArrow=oval;endArrow=block;startSize=8;edgeStyle=elbowEdgeStyle;elbow=vertical;curved=0;rounded=0;" parent="1" source="A4qBjmfrXXVflw_9Kbl0-4" target="A4qBjmfrXXVflw_9Kbl0-51" edge="1">
          <mxGeometry relative="1" as="geometry">
            <mxPoint x="515" y="480" as="sourcePoint" />
          </mxGeometry>
        </mxCell>
        <mxCell id="A4qBjmfrXXVflw_9Kbl0-54" value="8. 执行 dev 或 build 命令" style="html=1;verticalAlign=bottom;startArrow=oval;endArrow=block;startSize=8;edgeStyle=elbowEdgeStyle;elbow=vertical;curved=0;rounded=0;" parent="1" source="A4qBjmfrXXVflw_9Kbl0-13" target="A4qBjmfrXXVflw_9Kbl0-53" edge="1">
          <mxGeometry relative="1" as="geometry">
            <mxPoint x="675" y="520" as="sourcePoint" />
          </mxGeometry>
        </mxCell>
        <mxCell id="A4qBjmfrXXVflw_9Kbl0-56" value="9. 读取 dev 或 build 的配置文件" style="html=1;verticalAlign=bottom;endArrow=block;edgeStyle=elbowEdgeStyle;elbow=vertical;curved=0;rounded=0;" parent="1" target="A4qBjmfrXXVflw_9Kbl0-55" edge="1">
          <mxGeometry relative="1" as="geometry">
            <mxPoint x="740" y="570" as="sourcePoint" />
            <Array as="points">
              <mxPoint x="820" y="570" />
            </Array>
          </mxGeometry>
        </mxCell>
        <mxCell id="A4qBjmfrXXVflw_9Kbl0-57" value="10. 返回指定配置文件" style="html=1;verticalAlign=bottom;endArrow=open;dashed=1;endSize=8;edgeStyle=elbowEdgeStyle;elbow=vertical;curved=0;rounded=0;" parent="1" source="A4qBjmfrXXVflw_9Kbl0-55" edge="1">
          <mxGeometry relative="1" as="geometry">
            <mxPoint x="750" y="630" as="targetPoint" />
            <Array as="points">
              <mxPoint x="840" y="630" />
            </Array>
          </mxGeometry>
        </mxCell>
        <mxCell id="A4qBjmfrXXVflw_9Kbl0-60" value="11. 启动本地 Server 或 返回编译产物" style="html=1;verticalAlign=bottom;endArrow=open;dashed=1;endSize=8;edgeStyle=elbowEdgeStyle;elbow=vertical;curved=0;rounded=0;entryX=0.499;entryY=0.855;entryDx=0;entryDy=0;entryPerimeter=0;" parent="1" target="A4qBjmfrXXVflw_9Kbl0-2" edge="1">
          <mxGeometry relative="1" as="geometry">
            <mxPoint x="730" y="660" as="sourcePoint" />
            <mxPoint x="650" y="660" as="targetPoint" />
          </mxGeometry>
        </mxCell>
      </root>
    </mxGraphModel>
  </diagram>
  <diagram name="WebRunning" id="nIrC-GOqNr_iJ7nUl4dr">
    <mxGraphModel dx="1434" dy="764" grid="1" gridSize="10" guides="1" tooltips="1" connect="1" arrows="1" fold="1" page="1" pageScale="1" pageWidth="850" pageHeight="1100" math="0" shadow="0">
      <root>
        <mxCell id="1VO_EL0Iz5KeoS1XYj0s-0" />
        <mxCell id="1VO_EL0Iz5KeoS1XYj0s-1" parent="1VO_EL0Iz5KeoS1XYj0s-0" />
        <mxCell id="1VO_EL0Iz5KeoS1XYj0s-2" value="" style="shape=umlLifeline;perimeter=lifelinePerimeter;whiteSpace=wrap;html=1;container=1;dropTarget=0;collapsible=0;recursiveResize=0;outlineConnect=0;portConstraint=eastwest;newEdgeStyle={&quot;edgeStyle&quot;:&quot;elbowEdgeStyle&quot;,&quot;elbow&quot;:&quot;vertical&quot;,&quot;curved&quot;:0,&quot;rounded&quot;:0};participant=umlActor;size=60;fillColor=#f8cecc;strokeColor=#b85450;strokeWidth=2;" vertex="1" parent="1VO_EL0Iz5KeoS1XYj0s-1">
          <mxGeometry x="40" y="80" width="40" height="680" as="geometry" />
        </mxCell>
        <mxCell id="1VO_EL0Iz5KeoS1XYj0s-3" value="main.js" style="shape=umlLifeline;perimeter=lifelinePerimeter;whiteSpace=wrap;html=1;container=1;dropTarget=0;collapsible=0;recursiveResize=0;outlineConnect=0;portConstraint=eastwest;newEdgeStyle={&quot;edgeStyle&quot;:&quot;elbowEdgeStyle&quot;,&quot;elbow&quot;:&quot;vertical&quot;,&quot;curved&quot;:0,&quot;rounded&quot;:0};size=60;fillColor=#d5e8d4;strokeColor=#82b366;strokeWidth=2;" vertex="1" parent="1VO_EL0Iz5KeoS1XYj0s-1">
          <mxGeometry x="200" y="80" width="100" height="680" as="geometry" />
        </mxCell>
        <mxCell id="1VO_EL0Iz5KeoS1XYj0s-4" value="" style="html=1;points=[];perimeter=orthogonalPerimeter;outlineConnect=0;targetShapes=umlLifeline;portConstraint=eastwest;newEdgeStyle={&quot;edgeStyle&quot;:&quot;elbowEdgeStyle&quot;,&quot;elbow&quot;:&quot;vertical&quot;,&quot;curved&quot;:0,&quot;rounded&quot;:0};" vertex="1" parent="1VO_EL0Iz5KeoS1XYj0s-3">
          <mxGeometry x="45" y="80" width="10" height="40" as="geometry" />
        </mxCell>
        <mxCell id="1VO_EL0Iz5KeoS1XYj0s-5" value="config.js" style="shape=umlLifeline;perimeter=lifelinePerimeter;whiteSpace=wrap;html=1;container=1;dropTarget=0;collapsible=0;recursiveResize=0;outlineConnect=0;portConstraint=eastwest;newEdgeStyle={&quot;edgeStyle&quot;:&quot;elbowEdgeStyle&quot;,&quot;elbow&quot;:&quot;vertical&quot;,&quot;curved&quot;:0,&quot;rounded&quot;:0};size=60;fillColor=#d5e8d4;strokeColor=#82b366;strokeWidth=2;" vertex="1" parent="1VO_EL0Iz5KeoS1XYj0s-1">
          <mxGeometry x="340" y="80" width="100" height="680" as="geometry" />
        </mxCell>
        <mxCell id="1VO_EL0Iz5KeoS1XYj0s-6" value="" style="html=1;points=[];perimeter=orthogonalPerimeter;outlineConnect=0;targetShapes=umlLifeline;portConstraint=eastwest;newEdgeStyle={&quot;edgeStyle&quot;:&quot;elbowEdgeStyle&quot;,&quot;elbow&quot;:&quot;vertical&quot;,&quot;curved&quot;:0,&quot;rounded&quot;:0};" vertex="1" parent="1VO_EL0Iz5KeoS1XYj0s-5">
          <mxGeometry x="45" y="120" width="10" height="80" as="geometry" />
        </mxCell>
        <mxCell id="V92EydGJ1r16gkS3dVMq-19" value="GLOBAL&lt;br&gt;&amp;nbsp; &amp;nbsp; &amp;nbsp;和&lt;br&gt;VERSION" style="html=1;align=left;spacingLeft=2;endArrow=block;rounded=0;edgeStyle=orthogonalEdgeStyle;curved=0;rounded=0;dashed=1;" edge="1" target="1VO_EL0Iz5KeoS1XYj0s-6" parent="1VO_EL0Iz5KeoS1XYj0s-5">
          <mxGeometry y="10" relative="1" as="geometry">
            <mxPoint x="55" y="140" as="sourcePoint" />
            <Array as="points">
              <mxPoint x="90" y="140" />
              <mxPoint x="90" y="180" />
            </Array>
            <mxPoint x="60" y="170.0000000000001" as="targetPoint" />
            <mxPoint as="offset" />
          </mxGeometry>
        </mxCell>
        <mxCell id="1VO_EL0Iz5KeoS1XYj0s-9" value="1. 运行时入口" style="html=1;verticalAlign=bottom;startArrow=oval;endArrow=block;startSize=8;edgeStyle=elbowEdgeStyle;elbow=vertical;curved=0;rounded=0;" edge="1" parent="1VO_EL0Iz5KeoS1XYj0s-1" source="1VO_EL0Iz5KeoS1XYj0s-2" target="1VO_EL0Iz5KeoS1XYj0s-4">
          <mxGeometry x="-0.0096" relative="1" as="geometry">
            <mxPoint x="150" y="160" as="sourcePoint" />
            <mxPoint as="offset" />
          </mxGeometry>
        </mxCell>
        <mxCell id="1VO_EL0Iz5KeoS1XYj0s-12" value="WebRunning" style="shape=umlFrame;whiteSpace=wrap;html=1;pointerEvents=0;width=120;height=30;fillColor=#d5e8d4;strokeColor=#82b366;" vertex="1" parent="1VO_EL0Iz5KeoS1XYj0s-1">
          <mxGeometry x="160" y="40" width="1020" height="110" as="geometry" />
        </mxCell>
        <mxCell id="1VO_EL0Iz5KeoS1XYj0s-13" value="vui.js" style="shape=umlLifeline;perimeter=lifelinePerimeter;whiteSpace=wrap;html=1;container=1;dropTarget=0;collapsible=0;recursiveResize=0;outlineConnect=0;portConstraint=eastwest;newEdgeStyle={&quot;edgeStyle&quot;:&quot;elbowEdgeStyle&quot;,&quot;elbow&quot;:&quot;vertical&quot;,&quot;curved&quot;:0,&quot;rounded&quot;:0};size=60;fillColor=#d5e8d4;strokeColor=#82b366;strokeWidth=2;" vertex="1" parent="1VO_EL0Iz5KeoS1XYj0s-1">
          <mxGeometry x="480" y="80" width="100" height="680" as="geometry" />
        </mxCell>
        <mxCell id="V92EydGJ1r16gkS3dVMq-12" value="" style="html=1;points=[];perimeter=orthogonalPerimeter;outlineConnect=0;targetShapes=umlLifeline;portConstraint=eastwest;newEdgeStyle={&quot;edgeStyle&quot;:&quot;elbowEdgeStyle&quot;,&quot;elbow&quot;:&quot;vertical&quot;,&quot;curved&quot;:0,&quot;rounded&quot;:0};" vertex="1" parent="1VO_EL0Iz5KeoS1XYj0s-13">
          <mxGeometry x="45" y="200" width="10" height="80" as="geometry" />
        </mxCell>
        <mxCell id="1VO_EL0Iz5KeoS1XYj0s-15" value="vue.js" style="shape=umlLifeline;perimeter=lifelinePerimeter;whiteSpace=wrap;html=1;container=1;dropTarget=0;collapsible=0;recursiveResize=0;outlineConnect=0;portConstraint=eastwest;newEdgeStyle={&quot;edgeStyle&quot;:&quot;elbowEdgeStyle&quot;,&quot;elbow&quot;:&quot;vertical&quot;,&quot;curved&quot;:0,&quot;rounded&quot;:0};size=60;fillColor=#d5e8d4;strokeColor=#82b366;strokeWidth=2;" vertex="1" parent="1VO_EL0Iz5KeoS1XYj0s-1">
          <mxGeometry x="620" y="80" width="100" height="680" as="geometry" />
        </mxCell>
        <mxCell id="V92EydGJ1r16gkS3dVMq-16" value="" style="html=1;points=[];perimeter=orthogonalPerimeter;outlineConnect=0;targetShapes=umlLifeline;portConstraint=eastwest;newEdgeStyle={&quot;edgeStyle&quot;:&quot;elbowEdgeStyle&quot;,&quot;elbow&quot;:&quot;vertical&quot;,&quot;curved&quot;:0,&quot;rounded&quot;:0};" vertex="1" parent="1VO_EL0Iz5KeoS1XYj0s-15">
          <mxGeometry x="45" y="280" width="10" height="80" as="geometry" />
        </mxCell>
        <mxCell id="1VO_EL0Iz5KeoS1XYj0s-20" value="2. 初始化全局变量" style="html=1;verticalAlign=bottom;startArrow=oval;endArrow=block;startSize=8;edgeStyle=elbowEdgeStyle;elbow=vertical;curved=0;rounded=0;" edge="1" parent="1VO_EL0Iz5KeoS1XYj0s-1" source="1VO_EL0Iz5KeoS1XYj0s-3" target="1VO_EL0Iz5KeoS1XYj0s-6">
          <mxGeometry relative="1" as="geometry">
            <mxPoint x="350" y="200" as="sourcePoint" />
          </mxGeometry>
        </mxCell>
        <mxCell id="1VO_EL0Iz5KeoS1XYj0s-23" value="&amp;nbsp; &amp;nbsp;VUI" style="shape=umlLifeline;perimeter=lifelinePerimeter;whiteSpace=wrap;html=1;container=1;dropTarget=0;collapsible=0;recursiveResize=0;outlineConnect=0;portConstraint=eastwest;newEdgeStyle={&quot;edgeStyle&quot;:&quot;elbowEdgeStyle&quot;,&quot;elbow&quot;:&quot;vertical&quot;,&quot;curved&quot;:0,&quot;rounded&quot;:0};participant=umlBoundary;size=60;fillColor=#fff2cc;strokeColor=#d6b656;strokeWidth=2;" vertex="1" parent="1VO_EL0Iz5KeoS1XYj0s-1">
          <mxGeometry x="1220" y="80" width="70" height="680" as="geometry" />
        </mxCell>
        <mxCell id="V92EydGJ1r16gkS3dVMq-14" value="" style="html=1;points=[];perimeter=orthogonalPerimeter;outlineConnect=0;targetShapes=umlLifeline;portConstraint=eastwest;newEdgeStyle={&quot;edgeStyle&quot;:&quot;elbowEdgeStyle&quot;,&quot;elbow&quot;:&quot;vertical&quot;,&quot;curved&quot;:0,&quot;rounded&quot;:0};" vertex="1" parent="1VO_EL0Iz5KeoS1XYj0s-23">
          <mxGeometry x="30" y="200" width="10" height="80" as="geometry" />
        </mxCell>
        <mxCell id="V92EydGJ1r16gkS3dVMq-0" value="pwa.js" style="shape=umlLifeline;perimeter=lifelinePerimeter;whiteSpace=wrap;html=1;container=1;dropTarget=0;collapsible=0;recursiveResize=0;outlineConnect=0;portConstraint=eastwest;newEdgeStyle={&quot;edgeStyle&quot;:&quot;elbowEdgeStyle&quot;,&quot;elbow&quot;:&quot;vertical&quot;,&quot;curved&quot;:0,&quot;rounded&quot;:0};size=60;fillColor=#d5e8d4;strokeColor=#82b366;strokeWidth=2;" vertex="1" parent="1VO_EL0Iz5KeoS1XYj0s-1">
          <mxGeometry x="760" y="80" width="100" height="680" as="geometry" />
        </mxCell>
        <mxCell id="V92EydGJ1r16gkS3dVMq-24" value="" style="html=1;points=[];perimeter=orthogonalPerimeter;outlineConnect=0;targetShapes=umlLifeline;portConstraint=eastwest;newEdgeStyle={&quot;edgeStyle&quot;:&quot;elbowEdgeStyle&quot;,&quot;elbow&quot;:&quot;vertical&quot;,&quot;curved&quot;:0,&quot;rounded&quot;:0};" vertex="1" parent="V92EydGJ1r16gkS3dVMq-0">
          <mxGeometry x="45" y="360" width="10" height="80" as="geometry" />
        </mxCell>
        <mxCell id="V92EydGJ1r16gkS3dVMq-1" value="event.js" style="shape=umlLifeline;perimeter=lifelinePerimeter;whiteSpace=wrap;html=1;container=1;dropTarget=0;collapsible=0;recursiveResize=0;outlineConnect=0;portConstraint=eastwest;newEdgeStyle={&quot;edgeStyle&quot;:&quot;elbowEdgeStyle&quot;,&quot;elbow&quot;:&quot;vertical&quot;,&quot;curved&quot;:0,&quot;rounded&quot;:0};size=60;fillColor=#d5e8d4;strokeColor=#82b366;strokeWidth=2;" vertex="1" parent="1VO_EL0Iz5KeoS1XYj0s-1">
          <mxGeometry x="900" y="80" width="100" height="680" as="geometry" />
        </mxCell>
        <mxCell id="V92EydGJ1r16gkS3dVMq-34" value="" style="html=1;points=[];perimeter=orthogonalPerimeter;outlineConnect=0;targetShapes=umlLifeline;portConstraint=eastwest;newEdgeStyle={&quot;edgeStyle&quot;:&quot;elbowEdgeStyle&quot;,&quot;elbow&quot;:&quot;vertical&quot;,&quot;curved&quot;:0,&quot;rounded&quot;:0};" vertex="1" parent="V92EydGJ1r16gkS3dVMq-1">
          <mxGeometry x="45" y="440" width="10" height="80" as="geometry" />
        </mxCell>
        <mxCell id="V92EydGJ1r16gkS3dVMq-39" value="按键和消息" style="html=1;align=left;spacingLeft=2;endArrow=block;rounded=0;edgeStyle=orthogonalEdgeStyle;curved=0;rounded=0;dashed=1;" edge="1" target="V92EydGJ1r16gkS3dVMq-34" parent="V92EydGJ1r16gkS3dVMq-1">
          <mxGeometry x="0.0909" y="5" relative="1" as="geometry">
            <mxPoint x="55" y="450" as="sourcePoint" />
            <Array as="points">
              <mxPoint x="55" y="460" />
              <mxPoint x="85" y="460" />
              <mxPoint x="85" y="500" />
            </Array>
            <mxPoint x="60" y="480.0000000000002" as="targetPoint" />
            <mxPoint as="offset" />
          </mxGeometry>
        </mxCell>
        <mxCell id="V92EydGJ1r16gkS3dVMq-2" value="canary.js" style="shape=umlLifeline;perimeter=lifelinePerimeter;whiteSpace=wrap;html=1;container=1;dropTarget=0;collapsible=0;recursiveResize=0;outlineConnect=0;portConstraint=eastwest;newEdgeStyle={&quot;edgeStyle&quot;:&quot;elbowEdgeStyle&quot;,&quot;elbow&quot;:&quot;vertical&quot;,&quot;curved&quot;:0,&quot;rounded&quot;:0};size=60;fillColor=#d5e8d4;strokeColor=#82b366;strokeWidth=2;" vertex="1" parent="1VO_EL0Iz5KeoS1XYj0s-1">
          <mxGeometry x="1040" y="80" width="100" height="680" as="geometry" />
        </mxCell>
        <mxCell id="V92EydGJ1r16gkS3dVMq-36" value="" style="html=1;points=[];perimeter=orthogonalPerimeter;outlineConnect=0;targetShapes=umlLifeline;portConstraint=eastwest;newEdgeStyle={&quot;edgeStyle&quot;:&quot;elbowEdgeStyle&quot;,&quot;elbow&quot;:&quot;vertical&quot;,&quot;curved&quot;:0,&quot;rounded&quot;:0};" vertex="1" parent="V92EydGJ1r16gkS3dVMq-2">
          <mxGeometry x="45" y="520" width="10" height="80" as="geometry" />
        </mxCell>
        <mxCell id="V92EydGJ1r16gkS3dVMq-42" value="调用 Api 上报灰度状态" style="html=1;align=left;spacingLeft=2;endArrow=block;rounded=0;edgeStyle=orthogonalEdgeStyle;curved=0;rounded=0;dashed=1;" edge="1" target="V92EydGJ1r16gkS3dVMq-36" parent="V92EydGJ1r16gkS3dVMq-2">
          <mxGeometry y="5" relative="1" as="geometry">
            <mxPoint x="55" y="540" as="sourcePoint" />
            <Array as="points">
              <mxPoint x="85" y="540" />
              <mxPoint x="85" y="580" />
            </Array>
            <mxPoint x="60" y="570.0000000000002" as="targetPoint" />
            <mxPoint as="offset" />
          </mxGeometry>
        </mxCell>
        <mxCell id="V92EydGJ1r16gkS3dVMq-13" value="3. 初始化 VUI 组件库" style="html=1;verticalAlign=bottom;startArrow=oval;endArrow=block;startSize=8;edgeStyle=elbowEdgeStyle;elbow=vertical;curved=0;rounded=0;" edge="1" target="V92EydGJ1r16gkS3dVMq-12" parent="1VO_EL0Iz5KeoS1XYj0s-1" source="1VO_EL0Iz5KeoS1XYj0s-3">
          <mxGeometry relative="1" as="geometry">
            <mxPoint x="465" y="240" as="sourcePoint" />
          </mxGeometry>
        </mxCell>
        <mxCell id="V92EydGJ1r16gkS3dVMq-15" value="安装 VUI、初始化主题、初始化对比度、初始化多语言 等等" style="html=1;verticalAlign=bottom;startArrow=oval;endArrow=block;startSize=8;edgeStyle=elbowEdgeStyle;elbow=vertical;curved=0;rounded=0;dashed=1;" edge="1" target="V92EydGJ1r16gkS3dVMq-14" parent="1VO_EL0Iz5KeoS1XYj0s-1" source="V92EydGJ1r16gkS3dVMq-12">
          <mxGeometry relative="1" as="geometry">
            <mxPoint x="1195" y="240" as="sourcePoint" />
          </mxGeometry>
        </mxCell>
        <mxCell id="V92EydGJ1r16gkS3dVMq-17" value="4. 初始化 Vue 脚手架" style="html=1;verticalAlign=bottom;startArrow=oval;endArrow=block;startSize=8;edgeStyle=elbowEdgeStyle;elbow=vertical;curved=0;rounded=0;" edge="1" target="V92EydGJ1r16gkS3dVMq-16" parent="1VO_EL0Iz5KeoS1XYj0s-1" source="1VO_EL0Iz5KeoS1XYj0s-3">
          <mxGeometry relative="1" as="geometry">
            <mxPoint x="605" y="320" as="sourcePoint" />
          </mxGeometry>
        </mxCell>
        <mxCell id="V92EydGJ1r16gkS3dVMq-20" value="&amp;nbsp; &amp;nbsp;Vue" style="shape=umlLifeline;perimeter=lifelinePerimeter;whiteSpace=wrap;html=1;container=1;dropTarget=0;collapsible=0;recursiveResize=0;outlineConnect=0;portConstraint=eastwest;newEdgeStyle={&quot;edgeStyle&quot;:&quot;elbowEdgeStyle&quot;,&quot;elbow&quot;:&quot;vertical&quot;,&quot;curved&quot;:0,&quot;rounded&quot;:0};participant=umlBoundary;size=60;fillColor=#fff2cc;strokeColor=#d6b656;strokeWidth=2;" vertex="1" parent="1VO_EL0Iz5KeoS1XYj0s-1">
          <mxGeometry x="1330" y="80" width="70" height="680" as="geometry" />
        </mxCell>
        <mxCell id="V92EydGJ1r16gkS3dVMq-22" value="" style="html=1;points=[];perimeter=orthogonalPerimeter;outlineConnect=0;targetShapes=umlLifeline;portConstraint=eastwest;newEdgeStyle={&quot;edgeStyle&quot;:&quot;elbowEdgeStyle&quot;,&quot;elbow&quot;:&quot;vertical&quot;,&quot;curved&quot;:0,&quot;rounded&quot;:0};" vertex="1" parent="V92EydGJ1r16gkS3dVMq-20">
          <mxGeometry x="30" y="280" width="10" height="80" as="geometry" />
        </mxCell>
        <mxCell id="V92EydGJ1r16gkS3dVMq-23" value="注册&amp;nbsp;i18n、注册&amp;nbsp;router 路由、注册 vuex 仓库、注册 VUI 的&amp;nbsp;focusManager 焦点管理器；最终挂载到&amp;nbsp;#app 节点上" style="html=1;verticalAlign=bottom;startArrow=oval;endArrow=block;startSize=8;edgeStyle=elbowEdgeStyle;elbow=vertical;curved=0;rounded=0;dashed=1;" edge="1" target="V92EydGJ1r16gkS3dVMq-22" parent="1VO_EL0Iz5KeoS1XYj0s-1" source="V92EydGJ1r16gkS3dVMq-16">
          <mxGeometry relative="1" as="geometry">
            <mxPoint x="1315" y="360" as="sourcePoint" />
          </mxGeometry>
        </mxCell>
        <mxCell id="V92EydGJ1r16gkS3dVMq-25" value="5.&amp;nbsp;初始化 PWA 消息监听" style="html=1;verticalAlign=bottom;startArrow=oval;endArrow=block;startSize=8;edgeStyle=elbowEdgeStyle;elbow=vertical;curved=0;rounded=0;" edge="1" target="V92EydGJ1r16gkS3dVMq-24" parent="1VO_EL0Iz5KeoS1XYj0s-1" source="1VO_EL0Iz5KeoS1XYj0s-3">
          <mxGeometry relative="1" as="geometry">
            <mxPoint x="745" y="440" as="sourcePoint" />
          </mxGeometry>
        </mxCell>
        <mxCell id="V92EydGJ1r16gkS3dVMq-30" value="&amp;nbsp; &amp;nbsp; &amp;nbsp;offline-plugin" style="shape=umlLifeline;perimeter=lifelinePerimeter;whiteSpace=wrap;html=1;container=1;dropTarget=0;collapsible=0;recursiveResize=0;outlineConnect=0;portConstraint=eastwest;newEdgeStyle={&quot;edgeStyle&quot;:&quot;elbowEdgeStyle&quot;,&quot;elbow&quot;:&quot;vertical&quot;,&quot;curved&quot;:0,&quot;rounded&quot;:0};participant=umlBoundary;size=60;fillColor=#fff2cc;strokeColor=#d6b656;strokeWidth=2;" vertex="1" parent="1VO_EL0Iz5KeoS1XYj0s-1">
          <mxGeometry x="1440" y="80" width="90" height="680" as="geometry" />
        </mxCell>
        <mxCell id="V92EydGJ1r16gkS3dVMq-32" value="" style="html=1;points=[];perimeter=orthogonalPerimeter;outlineConnect=0;targetShapes=umlLifeline;portConstraint=eastwest;newEdgeStyle={&quot;edgeStyle&quot;:&quot;elbowEdgeStyle&quot;,&quot;elbow&quot;:&quot;vertical&quot;,&quot;curved&quot;:0,&quot;rounded&quot;:0};" vertex="1" parent="V92EydGJ1r16gkS3dVMq-30">
          <mxGeometry x="40" y="360" width="10" height="80" as="geometry" />
        </mxCell>
        <mxCell id="V92EydGJ1r16gkS3dVMq-33" value="调用&amp;nbsp;runtime 模块的 install 方法注册相关依赖，然后监听&amp;nbsp;onUpdateReady 和&amp;nbsp;onUpdated 等消息进行下载更新" style="html=1;verticalAlign=bottom;startArrow=oval;endArrow=block;startSize=8;edgeStyle=elbowEdgeStyle;elbow=vertical;curved=0;rounded=0;dashed=1;" edge="1" target="V92EydGJ1r16gkS3dVMq-32" parent="1VO_EL0Iz5KeoS1XYj0s-1" source="V92EydGJ1r16gkS3dVMq-24">
          <mxGeometry relative="1" as="geometry">
            <mxPoint x="1440" y="440" as="sourcePoint" />
          </mxGeometry>
        </mxCell>
        <mxCell id="V92EydGJ1r16gkS3dVMq-35" value="6.&amp;nbsp;初始化 Event 全局事件注册" style="html=1;verticalAlign=bottom;startArrow=oval;endArrow=block;startSize=8;edgeStyle=elbowEdgeStyle;elbow=vertical;curved=0;rounded=0;" edge="1" target="V92EydGJ1r16gkS3dVMq-34" parent="1VO_EL0Iz5KeoS1XYj0s-1" source="1VO_EL0Iz5KeoS1XYj0s-3">
          <mxGeometry relative="1" as="geometry">
            <mxPoint x="885" y="520" as="sourcePoint" />
          </mxGeometry>
        </mxCell>
        <mxCell id="V92EydGJ1r16gkS3dVMq-37" value="7.&amp;nbsp;初始化 Canary 灰度部署参数" style="html=1;verticalAlign=bottom;startArrow=oval;endArrow=block;startSize=8;edgeStyle=elbowEdgeStyle;elbow=vertical;curved=0;rounded=0;" edge="1" target="V92EydGJ1r16gkS3dVMq-36" parent="1VO_EL0Iz5KeoS1XYj0s-1" source="1VO_EL0Iz5KeoS1XYj0s-3">
          <mxGeometry relative="1" as="geometry">
            <mxPoint x="1025" y="600" as="sourcePoint" />
          </mxGeometry>
        </mxCell>
      </root>
    </mxGraphModel>
  </diagram>
</mxfile>
